<svg xmlns="http://www.w3.org/2000/svg" xmlns:xlink="http://www.w3.org/1999/xlink" width="492" height="142" viewBox="0 0 492 142"><defs><linearGradient id="a" x1="0.5" x2="0.5" y2="1" gradientUnits="objectBoundingBox"><stop offset="0" stop-color="#7fd46b" stop-opacity="0.631"/><stop offset="1" stop-color="#20a500" stop-opacity="0.631"/></linearGradient><filter id="b" x="194" y="23" width="289" height="98" filterUnits="userSpaceOnUse"><feOffset dy="3" input="SourceAlpha"/><feGaussianBlur stdDeviation="3" result="c"/><feFlood flood-opacity="0.161"/><feComposite operator="in" in2="c"/><feComposite in="SourceGraphic"/></filter></defs><g transform="translate(-719 -667)"><rect width="492" height="142" rx="15" transform="translate(719 667)" fill="#fff"/><path d="M15,6a9.01,9.01,0,0,0-9,9V127a9.01,9.01,0,0,0,9,9H477a9.01,9.01,0,0,0,9-9V15a9.01,9.01,0,0,0-9-9H15m0-6H477a15,15,0,0,1,15,15V127a15,15,0,0,1-15,15H15A15,15,0,0,1,0,127V15A15,15,0,0,1,15,0Z" transform="translate(719 667)" fill="#7fd46b"/><path d="M10,1a9.01,9.01,0,0,0-9,9V120a9.01,9.01,0,0,0,9,9H471a9.01,9.01,0,0,0,9-9V10a9.01,9.01,0,0,0-9-9H10m0-1H471a10,10,0,0,1,10,10V120a10,10,0,0,1-10,10H10A10,10,0,0,1,0,120V10A10,10,0,0,1,10,0Z" transform="translate(725 673)" fill="#2e8719"/><rect width="472" height="120" rx="10" transform="translate(729 678)" fill="url(#a)"/><path d="M10,5a5.006,5.006,0,0,0-5,5V110a5.006,5.006,0,0,0,5,5H462a5.006,5.006,0,0,0,5-5V10a5.006,5.006,0,0,0-5-5H10m0-5H462a10,10,0,0,1,10,10V110a10,10,0,0,1-10,10H10A10,10,0,0,1,0,110V10A10,10,0,0,1,10,0Z" transform="translate(729 678)" fill="rgba(127,212,107,0.69)"/><g transform="matrix(1, 0, 0, 1, 719, 667)" filter="url(#b)"><text transform="translate(203 29)" fill="#fff" font-size="30" font-family="YuGothicUI-Bold, Yu Gothic UI" font-weight="700"><tspan x="0" y="32">回收進度</tspan><tspan y="32" font-family="MicrosoftJhengHeiUIBold, Microsoft JhengHei UI" font-weight="400">查</tspan><tspan y="32">詢</tspan><tspan y="32" font-family="SegoeUI-Bold, Segoe UI"></tspan><tspan x="0" y="72">汽燃費</tspan><tspan y="72" font-family="SegoeUI-Bold, Segoe UI">/</tspan><tspan y="72">牌照稅繳納</tspan></text></g><g transform="translate(744.05 695.92)"><path d="M-.05,80.16H133.79l14.76-15.28H14.76ZM146.11,65.64,132.9,79.31H2.44L15.65,65.64Z" fill="#fff"/><path d="M6.7,78.23h9.6L27.69,66.81h-9.6Z" fill="#fff"/><path d="M19.39,78.23h9.6L40.38,66.81H30.77Z" fill="#fff"/><path d="M32.07,78.23h9.6L53.06,66.81h-9.6Z" fill="#fff"/><path d="M44.76,78.23h9.6L65.75,66.81H56.14Z" fill="#fff"/><path d="M57.44,78.23h9.6L78.43,66.81h-9.6Z" fill="#fff"/><path d="M70.13,78.23h9.6L91.11,66.81h-9.6Z" fill="#fff"/><path d="M82.81,78.23h9.6L103.8,66.81H94.2Z" fill="#fff"/><path d="M22.07,36.83a5.629,5.629,0,0,1,1.87-3.06q11.719-11.681,23.4-23.4a2,2,0,0,1,1.47-.66c2.72,0,5.45,0,8.17.07a.993.993,0,0,1,.2.05,22.836,22.836,0,0,0,.45,5.44,1.056,1.056,0,0,1-.16.56,4.48,4.48,0,0,0,.32,5,4.62,4.62,0,0,0,8.25-1.76,4.481,4.481,0,0,0-1.52-4.51,1.35,1.35,0,0,1-.4-.73c-.16-1-.26-1.94-.37-2.92a4.149,4.149,0,0,1,0-.65c1.21.17,2.37.32,3.52.49a1.78,1.78,0,0,1,1.6,1.72c.29,2.48.6,5,.83,7.45a73.56,73.56,0,0,1,.4,10,3.711,3.711,0,0,1-1.15,2.65Q57.13,44.31,45.38,56.11a3.86,3.86,0,0,1-4.28,1.17,4.568,4.568,0,0,1-1.61-1q-8.111-8.051-16.18-16.15a4.8,4.8,0,0,1-1.27-2.48v-.78Zm29.42-10a6.717,6.717,0,0,0-4.68-1.26A4.92,4.92,0,0,0,42.75,30a9.29,9.29,0,0,0,.94,4c.42,1,.85,2,1.17,3a1.631,1.631,0,0,1-.62,1.93,1.769,1.769,0,0,1-2,0A5.764,5.764,0,0,1,40,36.74c-.59-1-1.08-2-1.63-3.06l-3,1.77a12.681,12.681,0,0,0,2.73,4.56l-2,1.91L38.18,44c.49-.49,1-1,1.52-1.55a.811.811,0,0,1,1.1-.305.8.8,0,0,1,.176.135,6,6,0,0,0,4.24.92,5.21,5.21,0,0,0,4.26-5,12.632,12.632,0,0,0-.72-3.11c-.4-1.23-.95-2.41-1.37-3.63a1.421,1.421,0,0,1,.46-1.75,1.561,1.561,0,0,1,1.92.06,6.4,6.4,0,0,1,1.5,1.38c.68,1,1.24,2,1.86,3h0l2-1.14c1-.58,1-.6.45-1.59s-1.2-1.85-1.86-2.86l1.78-1.63-2.14-2.17ZM67.79.55a3.359,3.359,0,0,1-.42.12,10,10,0,0,0-8.59,10.49c.18,2.43.68,4.83,1.09,7.24A1.62,1.62,0,0,0,61.7,19.773a1.572,1.572,0,0,0,.166-.033,1.671,1.671,0,0,0,1.33-1.952l-.01-.048c-.25-1.46-.54-2.91-.76-4.38a10.559,10.559,0,0,1-.11-4.19,6.789,6.789,0,0,1,6.56-5.24,6.65,6.65,0,0,1,6.51,5.34,16.626,16.626,0,0,1-.07,6.35,28.9,28.9,0,0,1-3.08,9.28A2.135,2.135,0,0,0,72,25.96a1.62,1.62,0,0,0,1.35,1.49,1.7,1.7,0,0,0,1.84-1,29.546,29.546,0,0,0,2.82-7.22,25.409,25.409,0,0,0,.91-9.24c-.5-4.23-2.61-7.34-6.69-8.91A19.35,19.35,0,0,0,69.93.5H67.82Z" fill="#fff"/><path d="M84.5,70.02c-2.7,0-4-1.3-4-4V5.58a4,4,0,0,1,2.3-3.94,1.489,1.489,0,0,1,.63-.14h50.93a1.489,1.489,0,0,1,.63.14,4,4,0,0,1,2.3,3.95V49.38a1.5,1.5,0,0,1-1.5,1.5H118.87c-.8,0-.83,0-.83.84V68.58a1.5,1.5,0,0,1-1.5,1.5h-32ZM99.27,35.46a7.592,7.592,0,0,0-2.49.42,8.07,8.07,0,0,0-2.66,13.89,2.729,2.729,0,0,1,.83,1.87v7.04a.51.51,0,0,0,.36.62,1.009,1.009,0,0,0,.44-.12l1-.48c.49-.25,1-.5,1.49-.73a2.606,2.606,0,0,1,2,0c.54.24,1.07.5,1.6.77l.75.38a1.339,1.339,0,0,0,.57.16c.27,0,.33-.39.33-.72V51.64a2.691,2.691,0,0,1,.87-1.89,8,8,0,0,0,2.84-7.42,8.13,8.13,0,0,0-7.94-6.87Zm15.62,7.69c-.68,0-.68.3-.68.42s0,.42.67.42h11c.67,0,.67-.32.67-.42s0-.42-.68-.42H114.89Zm11-6.84c.68,0,.68-.32.68-.42s0-.42-.67-.42h-11c-.67,0-.67.31-.67.42s0,.42.68.42h10.98ZM91.81,27.79h-.23a.41.41,0,1,0,0,.82h34.06c.93,0,.93-.28.93-.42s0-.42-.93-.42H91.79Zm34-6.84c.67,0,.74-.07.74-.74v-7c0-.67-.07-.74-.74-.74H91.95c-.67,0-.74.07-.74.74v6.91a.64.64,0,0,0,.87.87h33.78Zm-5.38,47.69a1.5,1.5,0,0,1-1.5-1.5h0V53.19a1.5,1.5,0,0,1,1.5-1.5h13.94a1.5,1.5,0,0,1,1.06,2.56L121.49,68.19A1.5,1.5,0,0,1,120.43,68.64ZM99.25,50.82a7.255,7.255,0,1,1-.06-14.51h.11a7.255,7.255,0,0,1-.01,14.51h-.04ZM93.54,20.07a1.5,1.5,0,0,1-1.5-1.5V14.8a1.5,1.5,0,0,1,1.5-1.5h30.63a1.5,1.5,0,0,1,1.5,1.5v3.77a1.5,1.5,0,0,1-1.5,1.5Z" fill="#fff"/><path d="M134.33,3a2.471,2.471,0,0,1,1.42,2.58V49.33H118.87c-1.63,0-2.33.71-2.33,2.34V68.53h-32c-1.86,0-2.51-.64-2.51-2.48V5.6a2.471,2.471,0,0,1,1.42-2.58h50.93M99.94,22.47h25.93a2,2,0,0,0,2.24-2.24v-7a2,2,0,0,0-2.24-2.24H91.95a2,2,0,0,0-2.24,2.24v6.91c0,1.67.7,2.37,2.37,2.37h7.85m-8.09,7.68h33.83c1.54,0,2.43-.71,2.43-1.92s-.89-1.92-2.43-1.92H91.4a1.91,1.91,0,0,0,0,3.81h.4m3.58,30.69a2.514,2.514,0,0,0,1.08-.26c.81-.38,1.59-.82,2.41-1.18a1.121,1.121,0,0,1,.81,0c.78.34,1.53.75,2.29,1.12a2.821,2.821,0,0,0,1.23.32c1.08,0,1.83-.83,1.83-2.22V51.72a1.212,1.212,0,0,1,.37-.79,9.438,9.438,0,0,0,3.33-8.74A9.61,9.61,0,0,0,99.25,34a9.09,9.09,0,0,0-3,.5,9.57,9.57,0,0,0-3.17,16.43,1.229,1.229,0,0,1,.37.79v7.04a1.91,1.91,0,0,0,1.7,2.1c.054.006.107.009.161.01m21.71-23h8.8a1.93,1.93,0,0,0,.392-3.84,1.975,1.975,0,0,0-.392,0h-11a1.93,1.93,0,0,0-.392,3.84,1.975,1.975,0,0,0,.392,0h2.2m3.36,3.84h-5.57a1.93,1.93,0,0,0-.392,3.84,1.975,1.975,0,0,0,.392,0h11a1.93,1.93,0,1,0,.392-3.84,1.975,1.975,0,0,0-.392,0h-5.44m3.73-26.84v3.77H93.54V14.87h30.63m-24.87,23a5.755,5.755,0,0,1,0,11.51h0a5.755,5.755,0,1,1,0-11.51h.08m35.07,15.38L120.51,67.19v-14h13.94m0-53.19H83.4a3,3,0,0,0-1.26.28,5.38,5.38,0,0,0-3.17,5.31V66.04c0,3.49,2,5.48,5.51,5.48h32a3,3,0,0,0,2.68-1.64h.07a3,3,0,0,0,3.27-.65l13.94-13.94a3,3,0,0,0,.65-3.27v-.06a3,3,0,0,0,1.62-2.66V5.64A5.38,5.38,0,0,0,135.54.33a3,3,0,0,0-1.26-.28h0ZM99.25,52.32a8.849,8.849,0,0,0,2.78-.46v5.31c-.37-.19-.75-.37-1.16-.55a4.11,4.11,0,0,0-3.22,0c-.4.18-.77.36-1.14.54V51.88a8.632,8.632,0,0,0,2.76.45h0Zm35.12,3.87" fill="none"/></g></g></svg>