<svg xmlns="http://www.w3.org/2000/svg" xmlns:xlink="http://www.w3.org/1999/xlink" width="492" height="142" viewBox="0 0 492 142">
  <defs>
    <style>
      .cls-1, .cls-4, .cls-5 {
        fill: #fff;
      }

      .cls-1 {
        stroke: rgba(255,82,85,0.8);
        stroke-width: 6px;
      }

      .cls-2, .cls-7 {
        fill: none;
      }

      .cls-2 {
        stroke: #ff0005;
      }

      .cls-3 {
        stroke: rgba(255,82,85,0.56);
        stroke-width: 5px;
        fill: url(#linear-gradient);
      }

      .cls-4 {
        font-size: 33px;
        font-family: YuGothicUI-Bold, Yu Gothic UI;
        font-weight: 700;
      }

      .cls-6, .cls-8 {
        stroke: none;
      }

      .cls-8 {
        fill: #ff7678;
      }

      .cls-9 {
        filter: url(#常見問題);
      }
    </style>
    <linearGradient id="linear-gradient" x1="0.5" x2="0.5" y2="1" gradientUnits="objectBoundingBox">
      <stop offset="0" stop-color="#ff5255" stop-opacity="0.29"/>
      <stop offset="1" stop-color="#ff5255"/>
    </linearGradient>
    <filter id="常見問題" x="228" y="42" width="164" height="62" filterUnits="userSpaceOnUse">
      <feOffset dy="3" input="SourceAlpha"/>
      <feGaussianBlur stdDeviation="3" result="blur"/>
      <feFlood flood-opacity="0.161"/>
      <feComposite operator="in" in2="blur"/>
      <feComposite in="SourceGraphic"/>
    </filter>
  </defs>
  <g id="BTN2" transform="translate(-719 -667)">
    <g id="矩形_1" data-name="矩形 1" class="cls-1" transform="translate(719 667)">
      <rect class="cls-6" width="492" height="142" rx="15"/>
      <rect class="cls-7" x="3" y="3" width="486" height="136" rx="12"/>
    </g>
    <g id="矩形_4" data-name="矩形 4" class="cls-2" transform="translate(725 673)">
      <rect class="cls-6" width="481" height="130" rx="10"/>
      <rect class="cls-7" x="0.5" y="0.5" width="480" height="129" rx="9.5"/>
    </g>
    <g id="矩形_2" data-name="矩形 2" class="cls-3" transform="translate(729 678)">
      <rect class="cls-6" width="472" height="120" rx="10"/>
      <rect class="cls-7" x="2.5" y="2.5" width="467" height="115" rx="7.5"/>
    </g>
    <g class="cls-9" transform="matrix(1, 0, 0, 1, 719, 667)">
      <text id="常見問題-2" data-name="常見問題" class="cls-4" transform="translate(237 48)"><tspan x="0" y="36">常見問題</tspan></text>
    </g>
    <g id="组_1" data-name="组 1" transform="translate(767 695.983)">
      <g id="路径_12" data-name="路径 12" class="cls-5" transform="translate(6.861 5.117)">
        <path class="cls-6" d="M 21.88760185241699 34.66569519042969 C 19.87191200256348 34.66569519042969 17.94673156738281 33.70124435424805 16.73774147033691 32.08578491210938 L 16.73362159729004 32.08027267456055 L 16.72965240478516 32.07465362548828 C 15.41128921508789 30.20809936523438 14.74155139923096 27.92240524291992 14.84317207336426 25.63763236999512 L 14.84317207336426 19.86970520019531 C 14.74602127075195 17.60915184020996 15.41047477722168 15.34456539154053 16.71471214294434 13.49173355102539 L 16.7200813293457 13.48409366607666 L 16.72574234008789 13.47666358947754 C 17.92921257019043 11.89582347869873 19.8338623046875 10.9520435333252 21.8206615447998 10.9520435333252 C 21.9448127746582 10.9520435333252 22.07053375244141 10.95571041107178 22.19479370117188 10.96295547485352 C 22.27875518798828 10.95973587036133 22.36358642578125 10.95810317993164 22.44737243652344 10.95810317993164 C 24.46906280517578 10.95810317993164 26.34879112243652 11.86809349060059 27.60458183288574 13.45475387573242 L 27.61052131652832 13.46225357055664 L 27.61617279052734 13.46998310089111 C 28.95842933654785 15.30612468719482 29.64528465270996 17.56826210021973 29.55081176757812 19.84061813354492 L 29.55081176757812 25.60879707336426 C 29.65101432800293 27.89874649047852 28.97022438049316 30.18540954589844 27.63323211669922 32.04873275756836 L 27.63003158569336 32.05320358276367 L 27.62673187255859 32.05759429931641 C 26.39981651306152 33.69049453735352 24.4466724395752 34.66546249389648 22.40240859985352 34.66546249389648 C 22.40228271484375 34.66546249389648 22.40240669250488 34.66546249389648 22.40228271484375 34.66546249389648 C 22.31747055053711 34.66546249389648 22.23162078857422 34.66378784179688 22.14672470092773 34.66047668457031 C 22.06062316894531 34.66393661499023 21.97355842590332 34.66569519042969 21.88760185241699 34.66569519042969 Z"/>
        <path class="cls-8" d="M 21.88759994506836 34.16569519042969 C 21.9737606048584 34.16569519042969 22.05978965759277 34.16382598876953 22.14633178710938 34.16005325317383 C 24.13227653503418 34.24399185180664 26.03282356262207 33.34657669067383 27.22699165344238 31.75724411010742 C 28.50656127929688 29.97394371032715 29.14924240112305 27.81285285949707 29.05081176757812 25.61992263793945 L 29.05081176757812 19.83000373840332 C 29.14345169067383 17.65878295898438 28.49498176574707 15.5194034576416 27.21252250671387 13.76505374908447 C 26.00387191772461 12.23796272277832 24.13656425476074 11.38105010986328 22.18976211547852 11.46356391906738 C 20.21972274780273 11.34051990509033 18.31919097900391 12.20901393890381 17.12357139587402 13.77953338623047 C 15.87440204620361 15.55414390563965 15.24764156341553 17.69207382202148 15.34317207336426 19.85895347595215 L 15.34317207336426 25.64887428283691 C 15.24330234527588 27.83746337890625 15.87440204620361 29.99710273742676 17.13805198669434 31.78619384765625 C 18.2614631652832 33.28730392456055 20.02394104003906 34.16569519042969 21.88759994506836 34.16569519042969 M 21.88760185241699 35.16569519042969 C 19.71516227722168 35.16569519042969 17.64034271240234 34.12632369995117 16.33743095397949 32.3853645324707 L 16.32125282287598 32.36311340332031 C 14.94134044647217 30.40941429138184 14.23927879333496 28.01800346374512 14.34317207336426 25.62665748596191 L 14.34317207336426 19.88043403625488 C 14.24390316009521 17.5138111114502 14.9404993057251 15.14357757568359 16.30584144592285 13.20392322540283 L 16.32790184020996 13.17380332946777 C 17.62535095214844 11.46952342987061 19.67871284484863 10.4520435333252 21.8206615447998 10.4520435333252 C 21.94646835327148 10.4520435333252 22.0737419128418 10.45553779602051 22.19973373413086 10.46244239807129 C 24.46774291992188 10.38322162628174 26.59444046020508 11.37280750274658 27.99664115905762 13.14444351196289 L 28.01982116699219 13.17490386962891 C 29.42655563354492 15.09926319122314 30.14742469787598 17.46926689147949 30.05081176757812 19.85075950622559 L 30.05081176757812 25.59815788269043 C 30.15324020385742 27.99587059020996 29.43936538696289 30.38924598693848 28.03948211669922 32.34022521972656 L 28.02646255493164 32.35794448852539 C 26.65470504760742 34.18362426757812 24.43954277038574 35.24358749389648 22.14691734313965 35.16083908081055 C 22.06058502197266 35.16405868530273 21.97355079650879 35.16569519042969 21.88760185241699 35.16569519042969 Z"/>
      </g>
      <g id="路径_13" data-name="路径 13" class="cls-5" transform="translate(0 0)">
        <path class="cls-6" d="M -0.9478992223739624 65.25460815429688 L -0.4582391977310181 64.13288116455078 L 6.237273693084717 48.79433441162109 C 1.902570247650146 43.42924499511719 -0.4826321303844452 36.69168853759766 -0.4855192005634308 29.78609848022461 C -0.4869592189788818 25.70116806030273 0.3118008077144623 21.73794746398926 1.888580799102783 18.00649833679199 C 3.411460876464844 14.40257835388184 5.592170715332031 11.16580772399902 8.370121002197266 8.386077880859375 C 11.14808082580566 5.606348037719727 14.38345050811768 3.423588037490845 17.98637008666992 1.89844810962677 C 21.71682167053223 0.3193181157112122 25.67952156066895 -0.4819218814373016 29.7644100189209 -0.4830018877983093 L 29.7752513885498 -0.4830018877983093 C 33.85882186889648 -0.4830018877983093 37.82068252563477 0.3167881071567535 41.5507926940918 1.894158124923706 C 45.15346145629883 3.417648077011108 48.38912200927734 5.598577976226807 51.16786956787109 8.376368522644043 C 53.94665908813477 11.15419769287109 56.12874221801758 14.38916778564453 57.65349960327148 17.99141883850098 C 59.23223114013672 21.72115898132324 60.03343963623047 25.68299865722656 60.03488159179688 29.76688766479492 C 60.03488159179688 33.92776870727539 59.19704055786133 37.97433853149414 57.54465103149414 41.79437637329102 C 55.15235137939453 47.32232666015625 51.22259140014648 51.96114730834961 46.18016052246094 55.20941925048828 C 41.26206970214844 58.37759017944336 35.57959365844727 60.05217742919922 29.74728393554688 60.05221939086914 C 29.74657249450684 60.05221939086914 29.74606323242188 60.05221939086914 29.7453498840332 60.05221939086914 C 25.67511367797852 60.05196380615234 21.7004451751709 59.23944091796875 17.92847442626953 57.63703536987305 L 0.1871107965707779 64.79657745361328 L -0.9478992223739624 65.25460815429688 Z M 34.24361038208008 42.69829940795898 L 34.46514892578125 42.91307830810547 L 39.83456802368164 48.1185417175293 L 43.19497680664062 45.38086318969727 L 38.37105178833008 40.67719650268555 L 38.01657104492188 40.33154678344727 L 38.35869979858398 39.97368621826172 C 39.48345184326172 38.79724884033203 40.34361267089844 37.42752838134766 40.91529083251953 35.9025764465332 C 41.52841186523438 34.25541687011719 41.82954025268555 32.52867889404297 41.80989074707031 30.77141761779785 L 41.80986022949219 30.76861763000488 L 41.80986022949219 30.76582717895508 L 41.80986022949219 25.07723808288574 L 41.80986022949219 25.06922721862793 L 41.81011962890625 25.06122779846191 C 41.91954040527344 21.64564895629883 40.62495040893555 18.27459716796875 38.2583122253418 15.81244850158691 C 35.97798156738281 13.48613834381104 32.79692077636719 12.14991855621338 29.53418159484863 12.14991855621338 C 29.3801212310791 12.14991855621338 29.22392082214355 12.15287780761719 29.06992149353027 12.15872764587402 L 29.04918098449707 12.15951824188232 L 29.02846145629883 12.15857791900635 C 28.84933090209961 12.1505184173584 28.66763114929199 12.14642810821533 28.4884204864502 12.14642810821533 C 25.26662445068359 12.14642810821533 22.13201332092285 13.47173595428467 19.88752555847168 15.782958984375 C 17.55603408813477 18.25414848327637 16.28240203857422 21.61978340148926 16.39307022094727 25.01752853393555 L 16.39334106445312 25.02566719055176 L 16.39334106445312 25.0338077545166 L 16.39334106445312 30.72240829467773 L 16.39334106445312 30.73083877563477 L 16.3930606842041 30.7392578125 C 16.27824592590332 34.14365005493164 17.55722045898438 37.51443862915039 19.90180397033691 39.98753356933594 C 22.1578426361084 42.3160400390625 25.31205368041992 43.6514778137207 28.55605125427246 43.6514778137207 C 28.72297096252441 43.6514778137207 28.89221000671387 43.64794921875 29.0590705871582 43.64098739624023 L 29.06989097595215 43.64053726196289 L 29.08071136474609 43.64055633544922 L 29.10361099243164 43.64057922363281 C 29.93391990661621 43.64056777954102 30.77272033691406 43.5653076171875 31.59671020507812 43.41687774658203 C 32.39710998535156 43.27389907836914 33.18939971923828 43.06639862060547 33.95228958129883 42.80001831054688 L 34.24361038208008 42.69829940795898 Z"/>
        <path class="cls-8" d="M 29.77525329589844 0.016998291015625 C 29.77124214172363 0.016998291015625 29.76855278015137 0.016998291015625 29.76454162597656 0.016998291015625 C 13.32839965820312 0.02133941650390625 0.0086822509765625 13.34973907470703 0.01446914672851562 29.785888671875 C 0.01737213134765625 36.69471740722656 2.421630859375 43.38641738891602 6.817630767822266 48.7145881652832 L 0 64.33290863037109 L 17.93429183959961 57.09550857543945 C 33.02571105957031 63.62653732299805 50.55471038818359 56.68731689453125 57.08573913574219 41.59587860107422 C 58.70112991333008 37.86138916015625 59.53488159179688 33.8359375 59.53488159179688 29.76706695556641 C 59.52909088134766 13.33494186401367 46.20587158203125 0.0177154541015625 29.77525329589844 0.016998291015625 M 29.05094146728516 11.65908813476562 C 32.63343811035156 11.5230827331543 36.10884857177734 12.90536499023438 38.61878204345703 15.46595764160156 C 41.09397125244141 18.0410270690918 42.42420959472656 21.50774765014648 42.30986022949219 25.07722854614258 L 42.30986022949219 30.76582717895508 C 42.33012008666992 32.57807922363281 42.01602172851562 34.37874603271484 41.38346862792969 36.07808685302734 C 40.79145050048828 37.65728759765625 39.88533020019531 39.10042572021484 38.72010803222656 40.31920623779297 L 43.94551086425781 45.41433715820312 L 39.80572128295898 48.78696823120117 L 34.11711883544922 43.27206802368164 C 33.32535171508789 43.54853820800781 32.51185989379883 43.76131820678711 31.68535041809082 43.90895843505859 C 30.82554817199707 44.06383514404297 29.95381927490234 44.14189147949219 29.07989120483398 44.14054870605469 C 25.50315093994141 44.28961563110352 22.03210067749023 42.90584564208984 19.54098892211914 40.33367919921875 C 17.08750915527344 37.74702835083008 15.77320098876953 34.28466033935547 15.89334106445312 30.72240829467773 L 15.89334106445312 25.03380966186523 C 15.77754211425781 21.47879791259766 17.08462142944336 18.02365875244141 19.52651214599609 15.43700790405273 C 22.01472854614258 12.87351608276367 25.48147583007812 11.49836730957031 29.05094146728516 11.65908813476562 M 29.76428031921387 -0.983001708984375 L 29.7752513885498 -0.983001708984375 C 33.92613983154297 -0.982818603515625 37.95351028442383 -0.1696395874023438 41.74554061889648 1.433948516845703 C 45.40781021118164 2.982669830322266 48.69686889648438 5.199546813964844 51.5213623046875 8.023017883300781 C 54.34590911865234 10.84654998779297 56.56398010253906 14.13485717773438 58.11395263671875 17.79660797119141 C 59.71890258789062 21.58823776245117 60.53342056274414 25.61556625366211 60.53488159179688 29.76671981811523 C 60.53488159179688 33.9964485168457 59.68321990966797 38.10980987548828 58.0035514831543 41.99288940429688 C 55.57179260253906 47.61203002929688 51.57698059082031 52.32743835449219 46.45092010498047 55.62948608398438 C 41.45149230957031 58.84996795654297 35.67481231689453 60.55221939086914 29.74538040161133 60.55221939086914 C 25.67673110961914 60.55221939086914 21.70222091674805 59.75368499755859 17.92444610595703 58.17784118652344 L -1.895797729492188 66.17631530761719 L 5.658275604248047 48.87089920043945 C 1.372512817382812 43.45659255981445 -0.9826240539550781 36.7042350769043 -0.9855308532714844 29.78630828857422 C -0.9869880676269531 25.63406753540039 -0.1749610900878906 21.60530853271484 1.428009033203125 17.81186676025391 C 2.976081848144531 14.14833831787109 5.1927490234375 10.85812759399414 8.016448974609375 8.032638549804688 C 10.84014892578125 5.207126617431641 14.12894058227539 2.988368988037109 17.79146194458008 1.437999725341797 C 21.58386993408203 -0.1673583984375 25.61211013793945 -0.981903076171875 29.76428031921387 -0.983001708984375 Z M 29.04743003845215 12.65993881225586 L 29.00599098205566 12.65807723999023 C 25.73725509643555 12.51094436645508 22.5191764831543 13.79264831542969 20.24919128417969 16.12822723388672 C 18.00978088378906 18.50299835205078 16.78647232055664 21.73670196533203 16.8928108215332 25.00124740600586 L 16.89334106445312 25.03380966186523 L 16.89277267456055 30.75611877441406 C 16.78246307373047 34.02684020996094 18.01054000854492 37.26491546630859 20.26261520385742 39.64136505126953 C 22.42490005493164 41.87221527099609 25.44736862182617 43.15146636962891 28.55602073669434 43.15146636962891 C 28.71600151062012 43.15146636962891 28.87825012207031 43.14808654785156 29.03824043273926 43.14141845703125 L 29.0596809387207 43.14051818847656 L 29.10378074645996 43.14056777954102 C 29.90432167053223 43.14056777954102 30.71324157714844 43.06797027587891 31.50806999206543 42.92479705810547 C 32.28314208984375 42.78634643554688 33.049560546875 42.58562850952148 33.78746032714844 42.32796859741211 L 34.37009048461914 42.12452697753906 L 39.86341857910156 47.45011901855469 L 42.44444274902344 45.34739685058594 L 37.31301879882812 40.34389877319336 L 37.99729919433594 39.62815856933594 C 39.07505798339844 38.50086975097656 39.8992919921875 37.18834686279297 40.44711303710938 35.72705841064453 C 41.03831100463867 34.13878631591797 41.32888031005859 32.47261047363281 41.30992126464844 30.77700805664062 L 41.30986022949219 30.76582717895508 L 41.31037139892578 25.04520797729492 C 41.41544342041016 21.7652702331543 40.17288208007812 18.52793502807617 37.90141296386719 16.16267776489258 C 35.71123123168945 13.93006896972656 32.66180419921875 12.64978790283203 29.53422164916992 12.64991760253906 C 29.3863410949707 12.64991760253906 29.23653030395508 12.65275955200195 29.08889007568359 12.65836715698242 L 29.04743003845215 12.65993881225586 Z"/>
      </g>
      <g id="路径_14" data-name="路径 14" class="cls-5" transform="translate(22.75 12.128)">
        <path class="cls-6" d="M 59.48190689086914 40.03936386108398 L 58.8011474609375 40.03936386108398 L 50.84000396728516 40.03936386108398 L 50.15773391723633 40.03936386108398 L 50.36322402954102 39.38877487182617 L 54.28589630126953 26.96939468383789 L 54.39625549316406 26.6199836730957 L 54.76267623901367 26.6199836730957 L 54.90742492675781 26.6199836730957 L 55.27466583251953 26.6199836730957 L 55.38452529907227 26.97040367126465 L 59.27824401855469 39.3897819519043 L 59.48190689086914 40.03936386108398 Z"/>
        <path class="cls-8" d="M 54.76267623901367 27.1199836730957 L 50.84000396728516 39.53936386108398 L 58.8011474609375 39.53936386108398 L 54.90742492675781 27.1199836730957 L 54.76267623901367 27.1199836730957 M 54.02983474731445 26.1199836730957 L 55.64190673828125 26.1199836730957 L 60.16266632080078 40.53936386108398 L 49.47545623779297 40.53936386108398 L 54.02983474731445 26.1199836730957 Z"/>
      </g>
      <g id="路径_15" data-name="路径 15" class="cls-5" transform="translate(15.496 6.119)">
        <path class="cls-6" d="M 94.30510711669922 78.92922973632812 L 93.16524505615234 78.46371459960938 L 75.42473602294922 71.21860504150391 C 73.91291046142578 71.86087036132812 72.34236907958984 72.38263702392578 70.753173828125 72.77046966552734 C 68.38509368896484 73.34864807128906 65.95974731445312 73.64181518554688 63.54453277587891 73.64181518554688 C 60.18133544921875 73.64181518554688 56.85985565185547 73.08148956298828 53.67236328125 71.97638702392578 C 50.54000473022461 70.89039611816406 47.62148284912109 69.3087158203125 44.99786376953125 67.2752685546875 C 42.34929275512695 65.22246551513672 40.07757568359375 62.76766586303711 38.24582290649414 59.97904586791992 C 36.35053253173828 57.09369659423828 34.97057342529297 53.91471862792969 34.1442756652832 50.53043746948242 L 34.06200408935547 50.19350814819336 L 34.34877395629883 49.99842834472656 C 44.3592529296875 43.18851852416992 49.18642425537109 30.70308685302734 46.36054611206055 18.9300365447998 L 46.27974319458008 18.59342765808105 L 46.56638336181641 18.39932823181152 C 51.59739303588867 14.99244689941406 57.46672439575195 13.19167709350586 63.53985595703125 13.19167709350586 C 66.99222564697266 13.19167709350586 70.39024353027344 13.77398777008057 73.63951110839844 14.9224271774292 C 76.9671630859375 16.09858703613281 80.04137420654297 17.83585739135742 82.77674102783203 20.08600807189941 C 85.93277740478516 22.68263816833496 88.48600769042969 25.81991767883301 90.36552429199219 29.41072654724121 C 92.18080139160156 32.87878799438477 93.29427337646484 36.62147903442383 93.67499542236328 40.53484725952148 C 94.05571746826172 44.44819641113281 93.68454742431641 48.33527755737305 92.57178497314453 52.08810806274414 C 91.44855499267578 55.87625503540039 89.61393737792969 59.36481094360352 87.11685943603516 62.46186828613281 L 93.81252288818359 77.80079650878906 L 94.30510711669922 78.92922973632812 Z M 70.12850952148438 56.88869857788086 L 75.458251953125 56.88869857788086 L 64.97391510009766 26.30466651916504 L 59.20292663574219 26.30466651916504 L 48.69133758544922 56.81632614135742 L 54.0211181640625 56.81632614135742 L 56.05336380004883 50.34879684448242 L 56.16338348388672 49.99868774414062 L 56.53037261962891 49.99868774414062 L 67.61808776855469 49.99868774414062 L 67.98623657226562 49.99868774414062 L 68.09553527832031 50.35023880004883 L 70.12850952148438 56.88869857788086 Z"/>
        <path class="cls-8" d="M 93.35428619384766 78.00082397460938 L 86.53666687011719 62.38250732421875 C 96.98313140869141 49.68375778198242 95.15785217285156 30.92006683349609 82.4591064453125 20.47214698791504 C 72.26740264892578 12.08833789825439 57.77378082275391 11.41381931304932 46.84673309326172 18.8133373260498 C 49.73880386352539 30.86216735839844 44.87526321411133 43.44221878051758 34.6300048828125 50.41183853149414 C 38.53240585327148 66.39492034912109 54.65153121948242 76.1871337890625 70.63463592529297 72.28471374511719 C 72.27173614501953 71.88520812988281 73.87265777587891 71.34674072265625 75.42000579833984 70.67657470703125 L 93.35428619384766 78.00082397460938 M 76.15821075439453 57.38869857788086 L 69.76036071777344 57.38869857788086 L 67.61808776855469 50.49868774414062 L 56.53037261962891 50.49868774414062 L 54.38811492919922 57.31632614135742 L 47.9902458190918 57.31632614135742 L 58.84634399414062 25.80466651916504 L 65.33107757568359 25.80466651916504 L 76.15821075439453 57.38869857788086 M 95.25592803955078 79.85762786865234 L 75.4276123046875 71.75985717773438 C 73.95035552978516 72.37561798095703 72.41968536376953 72.87844848632812 70.87171173095703 73.25621032714844 C 68.46492767333984 73.84384918212891 65.99966430664062 74.14181518554688 63.54453277587891 74.14181518554688 C 60.12544250488281 74.14181518554688 56.74886322021484 73.57220458984375 53.50857543945312 72.44879913330078 C 50.32472610473633 71.34495544433594 47.35825347900391 69.73729705810547 44.69156265258789 67.67045593261719 C 41.99928283691406 65.58378601074219 39.69002532958984 63.08838653564453 37.82792282104492 60.25355911254883 C 35.90120315551758 57.32035827636719 34.4984245300293 54.08892822265625 33.65854263305664 50.64902877807617 L 33.49401473999023 49.97517776489258 L 34.06753540039062 49.58501815795898 C 43.9072151184082 42.89130783081055 48.65201568603516 30.6189079284668 45.87435531616211 19.04673767089844 L 45.71276473999023 18.37352752685547 L 46.28602600097656 17.98532676696777 C 51.40012359619141 14.52218723297119 57.36640548706055 12.69167709350586 63.53985595703125 12.69167709350586 C 67.04913330078125 12.69167709350586 70.50320434570312 13.28360748291016 73.80613708496094 14.45101737976074 C 77.18887329101562 15.64663696289062 80.31389617919922 17.41260719299316 83.09438323974609 19.69986724853516 C 86.30240631103516 22.33926773071289 88.89778137207031 25.5284481048584 90.80851745605469 29.17885780334473 C 92.65379333496094 32.70423889160156 93.78565216064453 36.5086555480957 94.17264556884766 40.4864387512207 C 94.55963134765625 44.46418762207031 94.18230438232422 48.41537857055664 93.05115509033203 52.23024749755859 C 91.93787384033203 55.98483657836914 90.13745880126953 59.4495735168457 87.69573974609375 62.53818511962891 L 95.25592803955078 79.85762786865234 Z M 70.49666595458984 56.38869857788086 L 74.75828552246094 56.38869857788086 L 64.61675262451172 26.80466651916504 L 59.55951690673828 26.80466651916504 L 49.39243698120117 56.31632614135742 L 53.65413284301758 56.31632614135742 L 55.79639434814453 49.49868774414062 L 68.35438537597656 49.49868774414062 L 70.49666595458984 56.38869857788086 Z"/>
      </g>
    </g>
  </g>
</svg>
