<svg xmlns="http://www.w3.org/2000/svg" xmlns:xlink="http://www.w3.org/1999/xlink" width="492" height="142" viewBox="0 0 492 142">
  <defs>
    <style>
      .cls-1, .cls-4, .cls-6 {
        fill: #fff;
      }

      .cls-1 {
        stroke: rgba(49,163,253,0.8);
        stroke-width: 6px;
      }

      .cls-2, .cls-5 {
        fill: none;
      }

      .cls-2 {
        stroke: #31a3fd;
      }

      .cls-3 {
        stroke: rgba(56,167,253,0.69);
        stroke-width: 5px;
        fill: url(#linear-gradient);
      }

      .cls-4 {
        font-size: 33px;
        font-family: YuGothicUI-Bold, Yu Gothic UI;
        font-weight: 700;
      }

      .cls-7 {
        stroke: none;
      }

      .cls-8 {
        filter: url(#獎勵金線上申請);
      }
    </style>
    <linearGradient id="linear-gradient" x1="0.5" x2="0.5" y2="1" gradientUnits="objectBoundingBox">
      <stop offset="0" stop-color="#229bff" stop-opacity="0.29"/>
      <stop offset="1" stop-color="#229bff"/>
    </linearGradient>
    <filter id="獎勵金線上申請" x="201" y="42" width="259" height="62" filterUnits="userSpaceOnUse">
      <feOffset dy="3" input="SourceAlpha"/>
      <feGaussianBlur stdDeviation="3" result="blur"/>
      <feFlood flood-opacity="0.161"/>
      <feComposite operator="in" in2="blur"/>
      <feComposite in="SourceGraphic"/>
    </filter>
  </defs>
  <g id="BTN3" transform="translate(-719 -667)">
    <g id="矩形_1" data-name="矩形 1" class="cls-1" transform="translate(719 667)">
      <rect class="cls-7" width="492" height="142" rx="15"/>
      <rect class="cls-5" x="3" y="3" width="486" height="136" rx="12"/>
    </g>
    <g id="矩形_4" data-name="矩形 4" class="cls-2" transform="translate(725 673)">
      <rect class="cls-7" width="481" height="130" rx="10"/>
      <rect class="cls-5" x="0.5" y="0.5" width="480" height="129" rx="9.5"/>
    </g>
    <g id="矩形_2" data-name="矩形 2" class="cls-3" transform="translate(729 678)">
      <rect class="cls-7" width="472" height="120" rx="10"/>
      <rect class="cls-5" x="2.5" y="2.5" width="467" height="115" rx="7.5"/>
    </g>
    <g class="cls-8" transform="matrix(1, 0, 0, 1, 719, 667)">
      <text id="獎勵金線上申請-2" data-name="獎勵金線上申請" class="cls-4" transform="translate(210 48)"><tspan x="0" y="36">獎勵金線上申請</tspan></text>
    </g>
    <g id="组_3" data-name="组 3" transform="translate(1526.903 422.858)">
      <path id="路径_16" data-name="路径 16" class="cls-5" d="M-739.814,671.9a1.533,1.533,0,0,0-.536,1.144,1.531,1.531,0,0,0,.536,1.145,2.06,2.06,0,0,0,1.375.5,2.056,2.056,0,0,0,1.375-.5,1.525,1.525,0,0,0,.54-1.145,1.526,1.526,0,0,0-.54-1.144,2.058,2.058,0,0,0-1.375-.5A2.062,2.062,0,0,0-739.814,671.9Z" transform="translate(-23.494 -351.274)"/>
      <path id="路径_17" data-name="路径 17" class="cls-6" d="M-533.483,306.178l.087-.033v1.865a.991.991,0,0,1-.737-.954A.958.958,0,0,1-533.483,306.178Zm2.424,6.889.245-.13a1.258,1.258,0,0,0,.663-1.118c0-.517-.3-.868-.908-1.058Zm11.189-3.361a12.721,12.721,0,0,1-12.705,12.706,12.72,12.72,0,0,1-12.706-12.706A12.719,12.719,0,0,1-532.575,297,12.72,12.72,0,0,1-519.87,309.706Zm-7.28,2.107a2.847,2.847,0,0,0-.63-1.926,5.126,5.126,0,0,0-3.34-1.58V306.2a2.882,2.882,0,0,1,.795.5.879.879,0,0,0,.552.19,1.05,1.05,0,0,0,.378-.111l0,0,1.25-.785a.491.491,0,0,0,.253-.416.468.468,0,0,0-.182-.354,4.8,4.8,0,0,0-3.05-1.656v-1.184a.509.509,0,0,0-.548-.547h-1.119a.54.54,0,0,0-.586.547v1.154a5.4,5.4,0,0,0-1.574.44,3.228,3.228,0,0,0-2.227,3.07,2.96,2.96,0,0,0,.607,1.776,4.6,4.6,0,0,0,3.194,1.652v2.629a4.793,4.793,0,0,1-1.807-1.253.616.616,0,0,0-.508-.241l-.334.1,0,0-1.14.669a.491.491,0,0,0-.282.447l.135.325a5.668,5.668,0,0,0,1.2,1.19,5.789,5.789,0,0,0,2.739,1.168v1.037a.591.591,0,0,0,.586.61h1.119a.561.561,0,0,0,.548-.61V315.51a5.82,5.82,0,0,0,2.368-.848A3.325,3.325,0,0,0-527.15,311.812Z" transform="translate(-129.682 24.878)"/>
      <path id="路径_18" data-name="路径 18" class="cls-6" d="M-638.634,263.477l.079-.03v1.694a.9.9,0,0,1-.669-.867A.869.869,0,0,1-638.634,263.477Zm2.2,6.256.222-.118a1.142,1.142,0,0,0,.6-1.015c0-.47-.275-.789-.825-.961Zm10.162-3.052A11.553,11.553,0,0,1-637.81,278.22a11.552,11.552,0,0,1-11.539-11.539,11.551,11.551,0,0,1,11.539-11.539A11.552,11.552,0,0,1-626.271,266.681Zm-6.611,1.913a2.584,2.584,0,0,0-.573-1.749,4.653,4.653,0,0,0-3.034-1.435V263.5a2.618,2.618,0,0,1,.722.456.8.8,0,0,0,.5.172.952.952,0,0,0,.343-.1l0,0,1.135-.713a.447.447,0,0,0,.23-.377.426.426,0,0,0-.165-.321,4.358,4.358,0,0,0-2.771-1.5v-1.076a.462.462,0,0,0-.5-.5H-638a.49.49,0,0,0-.533.5v1.048a4.892,4.892,0,0,0-1.429.4,2.93,2.93,0,0,0-2.022,2.788,2.691,2.691,0,0,0,.551,1.613,4.176,4.176,0,0,0,2.9,1.5v2.387a4.35,4.35,0,0,1-1.641-1.138.56.56,0,0,0-.461-.219l-.3.088h0l-1.035.608a.446.446,0,0,0-.256.406l.123.295a5.154,5.154,0,0,0,1.09,1.081,5.259,5.259,0,0,0,2.488,1.061v.941a.536.536,0,0,0,.533.554h1.016a.509.509,0,0,0,.5-.554v-.943a5.292,5.292,0,0,0,2.151-.77A3.02,3.02,0,0,0-632.882,268.594Z" transform="translate(-6.632 48.496)"/>
      <path id="路径_19" data-name="路径 19" class="cls-6" d="M-334.4,305.391l.055,0-.44,1.012a.586.586,0,0,1-.175-.691A.567.567,0,0,1-334.4,305.391Zm-.31,4.309.163-.013a.744.744,0,0,0,.623-.45.641.641,0,0,0-.243-.788Zm6.863.815a7.525,7.525,0,0,1-9.889,3.9,7.525,7.525,0,0,1-3.9-9.89,7.524,7.524,0,0,1,9.89-3.9A7.524,7.524,0,0,1-327.842,310.515Zm-4.446-.574a1.684,1.684,0,0,0,.112-1.193,3.031,3.031,0,0,0-1.439-1.645l.5-1.142a1.7,1.7,0,0,1,.313.46.52.52,0,0,0,.255.233.621.621,0,0,0,.231.029h0l.863-.131a.291.291,0,0,0,.236-.166.277.277,0,0,0-.015-.235,2.837,2.837,0,0,0-1.264-1.618l.279-.643a.3.3,0,0,0-.168-.426l-.607-.264a.319.319,0,0,0-.447.158l-.272.626a3.191,3.191,0,0,0-.957-.132,1.909,1.909,0,0,0-1.932,1.141,1.751,1.751,0,0,0-.09,1.107,2.72,2.72,0,0,0,1.343,1.649l-.62,1.426a2.838,2.838,0,0,1-.685-1.106.365.365,0,0,0-.219-.251l-.2-.026h0l-.776.094a.291.291,0,0,0-.259.176l0,.208a3.355,3.355,0,0,0,.37.929,3.424,3.424,0,0,0,1.21,1.28l-.244.563a.349.349,0,0,0,.174.469l.607.264a.332.332,0,0,0,.441-.2l.245-.564a3.444,3.444,0,0,0,1.484.1A1.967,1.967,0,0,0-332.289,309.941Z" transform="translate(-330.967 -6.857)"/>
      <g id="组_2" data-name="组 2" transform="translate(-768.19 287.512)">
        <path id="路径_20" data-name="路径 20" class="cls-6" d="M-435,700.527v5.17l.554-.29a2.817,2.817,0,0,0,1.484-2.507C-432.96,701.74-433.6,700.954-435,700.527Z" transform="translate(487.014 -663.368)"/>
        <path id="路径_21" data-name="路径 21" class="cls-6" d="M-478.828,636.3a2.255,2.255,0,0,0,1.69,2.139v-4.181l-.214.073A2.169,2.169,0,0,0-478.828,636.3Z" transform="translate(524 -607.442)"/>
        <path id="路径_22" data-name="路径 22" class="cls-6" d="M-675.4,483.781a1.478,1.478,0,0,0-1.033-.445h-6.982a29.772,29.772,0,0,0-3.482-5.468c.258-.605,3.482-8.159,5.876-12.875.976-.574-10.758-6.569-20.393,2.373a46.043,46.043,0,0,0-17.5-3.379c-20.961,0-37.951,13.43-37.951,30,0,.452.016.9.042,1.344a3.632,3.632,0,0,1-1.371,1.909,5.506,5.506,0,0,1-1.021.584,2.467,2.467,0,0,0,.24-1.067,2.589,2.589,0,0,0-.887-1.925,3.114,3.114,0,0,0-2.073-.768,3.1,3.1,0,0,0-2.068.768,2.578,2.578,0,0,0-.892,1.925,2.473,2.473,0,0,0,.243,1.067,5.366,5.366,0,0,1-1.023-.587,3.474,3.474,0,0,1-1.471-2.656h-1.046a4.391,4.391,0,0,0,1.886,3.49,7.27,7.27,0,0,0,4.37,1.379,7.284,7.284,0,0,0,4.374-1.377,5.308,5.308,0,0,0,.91-.9,27.122,27.122,0,0,0,8.663,16.088l-1.455,14.71a1.6,1.6,0,0,0,1.146,1.692l5.223,1.508a1.6,1.6,0,0,0,1.862-.8l5-9.685a46.069,46.069,0,0,0,17.3,3.3,46.316,46.316,0,0,0,16.329-2.913l4.807,9.3a1.6,1.6,0,0,0,1.861.8l5.221-1.508a1.592,1.592,0,0,0,1.146-1.692l-1.359-13.713a31,31,0,0,0,6.73-8.124h7.748a1.485,1.485,0,0,0,1.033-.454,1.514,1.514,0,0,0,.432-1.053v-19.8A1.492,1.492,0,0,0-675.4,483.781ZM-760.559,497.9a2.056,2.056,0,0,1-1.374.5,2.06,2.06,0,0,1-1.375-.5,1.532,1.532,0,0,1-.536-1.145,1.534,1.534,0,0,1,.536-1.144,2.062,2.062,0,0,1,1.375-.5,2.058,2.058,0,0,1,1.374.5,1.527,1.527,0,0,1,.541,1.144A1.525,1.525,0,0,1-760.559,497.9Zm49.627,10.5a12.71,12.71,0,0,1-5.244,1.9v2.328a1.305,1.305,0,0,1-1.354,1.3h-2.508a1.25,1.25,0,0,1-1.289-1.3V510.3a13.091,13.091,0,0,1-6.153-2.619,12.756,12.756,0,0,1-2.7-2.669l-.306-.727a1.1,1.1,0,0,1,.631-1l2.554-1.5.008,0,.75-.217a1.4,1.4,0,0,1,1.151.54,9.357,9.357,0,0,0,4.063,2.808v-5.893c-3.434-.506-5.706-1.738-7.172-3.7a6.645,6.645,0,0,1-1.366-3.982c-.055-3.046,1.626-5.349,5-6.883a11.674,11.674,0,0,1,3.537-.987v-2.586a1.373,1.373,0,0,1,1.289-1.446h2.508a1.428,1.428,0,0,1,1.354,1.446v2.655a11.179,11.179,0,0,1,6.775,3.712,1.013,1.013,0,0,1,.377.793,1.118,1.118,0,0,1-.584.932l-2.81,1.76-.013,0a2.367,2.367,0,0,1-.849.249,1.8,1.8,0,0,1-1.176-.425,6.942,6.942,0,0,0-1.719-1.124v4.719c3.435.472,5.841,1.654,7.424,3.543a6.382,6.382,0,0,1,1.414,4.316A7.453,7.453,0,0,1-710.932,508.4Zm9.181-35.484-1.917,4.477a.657.657,0,0,1-.362.356.706.706,0,0,1-.527-.006l-2.253-.957h0l.006,0-.019-.012-.143-.059c-.144-.057-.363-.142-.661-.246-.587-.21-1.46-.5-2.544-.786a33.056,33.056,0,0,0-8.325-1.145,38.373,38.373,0,0,0-8.615,1.109,40.066,40.066,0,0,0-4.135,1.2l-.014,0-2.279.844a.668.668,0,0,1-.858-.393l-1.692-4.566a.668.668,0,0,1,.393-.857l2.283-.844a44.785,44.785,0,0,1,4.608-1.356,44.652,44.652,0,0,1,10.309-1.338,39.243,39.243,0,0,1,9.8,1.321,34.769,34.769,0,0,1,4.325,1.419l.028.011,2.236.956a.664.664,0,0,1,.359.365A.674.674,0,0,1-701.75,472.916Z" transform="translate(768.19 -462.494)"/>
      </g>
    </g>
  </g>
</svg>
