<svg xmlns="http://www.w3.org/2000/svg" xmlns:xlink="http://www.w3.org/1999/xlink" width="492" height="142" viewBox="0 0 492 142"><defs><linearGradient id="a" x1="0.5" x2="0.5" y2="1" gradientUnits="objectBoundingBox"><stop offset="0" stop-color="#ded5c6"/><stop offset="1" stop-color="#aca59a"/></linearGradient><filter id="b" x="194" y="23" width="289" height="98" filterUnits="userSpaceOnUse"><feOffset dy="3" input="SourceAlpha"/><feGaussianBlur stdDeviation="3" result="c"/><feFlood flood-opacity="0.161"/><feComposite operator="in" in2="c"/><feComposite in="SourceGraphic"/></filter></defs><g transform="translate(-719 -667)"><rect width="492" height="142" rx="15" transform="translate(719 667)" fill="#fff"/><path d="M15,6a9.01,9.01,0,0,0-9,9V127a9.01,9.01,0,0,0,9,9H477a9.01,9.01,0,0,0,9-9V15a9.01,9.01,0,0,0-9-9H15m0-6H477a15,15,0,0,1,15,15V127a15,15,0,0,1-15,15H15A15,15,0,0,1,0,127V15A15,15,0,0,1,15,0Z" transform="translate(719 667)" fill="#afa89d"/><path d="M10,1a9.01,9.01,0,0,0-9,9V120a9.01,9.01,0,0,0,9,9H471a9.01,9.01,0,0,0,9-9V10a9.01,9.01,0,0,0-9-9H10m0-1H471a10,10,0,0,1,10,10V120a10,10,0,0,1-10,10H10A10,10,0,0,1,0,120V10A10,10,0,0,1,10,0Z" transform="translate(725 673)" fill="#dad6d0"/><rect width="472" height="120" rx="10" transform="translate(729 678)" fill="url(#a)"/><path d="M10,5a5.006,5.006,0,0,0-5,5V110a5.006,5.006,0,0,0,5,5H462a5.006,5.006,0,0,0,5-5V10a5.006,5.006,0,0,0-5-5H10m0-5H462a10,10,0,0,1,10,10V110a10,10,0,0,1-10,10H10A10,10,0,0,1,0,110V10A10,10,0,0,1,10,0Z" transform="translate(729 678)" fill="#b4ada1"/><g transform="matrix(1, 0, 0, 1, 719, 667)" filter="url(#b)"><text transform="translate(203 29)" fill="#fff" font-size="30" font-family="YuGothicUI-Bold, Yu Gothic UI" font-weight="700"><tspan x="0" y="32">汰購電動機車獎勵</tspan><tspan y="32" font-family="SegoeUI-Bold, Segoe UI"></tspan><tspan x="0" y="72">申請資料</tspan><tspan y="72" font-family="MicrosoftJhengHeiUIBold, Microsoft JhengHei UI" font-weight="400">查</tspan><tspan y="72">詢</tspan></text></g><g transform="translate(744.05 695.92)"><path d="M134.33,3a2.471,2.471,0,0,1,1.42,2.58V49.33H118.87c-1.63,0-2.33.71-2.33,2.34V68.53h-32c-1.86,0-2.51-.64-2.51-2.48V5.6a2.471,2.471,0,0,1,1.42-2.58h50.93M99.94,22.47h25.93a2,2,0,0,0,2.24-2.24v-7a2,2,0,0,0-2.24-2.24H91.95a2,2,0,0,0-2.24,2.24v6.91c0,1.67.7,2.37,2.37,2.37h7.85m-8.09,7.68h33.83c1.54,0,2.43-.71,2.43-1.92s-.89-1.92-2.43-1.92H91.4a1.91,1.91,0,0,0,0,3.81h.4m3.58,30.69a2.514,2.514,0,0,0,1.08-.26c.81-.38,1.59-.82,2.41-1.18a1.121,1.121,0,0,1,.81,0c.78.34,1.53.75,2.29,1.12a2.821,2.821,0,0,0,1.23.32c1.08,0,1.83-.83,1.83-2.22V51.72a1.212,1.212,0,0,1,.37-.79,9.438,9.438,0,0,0,3.33-8.74A9.61,9.61,0,0,0,99.25,34a9.09,9.09,0,0,0-3,.5,9.57,9.57,0,0,0-3.17,16.43,1.229,1.229,0,0,1,.37.79v7.04a1.91,1.91,0,0,0,1.7,2.1c.054.006.107.009.161.01m21.71-23h8.8a1.93,1.93,0,0,0,.392-3.84,1.975,1.975,0,0,0-.392,0h-11a1.93,1.93,0,0,0-.392,3.84,1.975,1.975,0,0,0,.392,0h2.2m3.36,3.84h-5.57a1.93,1.93,0,0,0-.392,3.84,1.975,1.975,0,0,0,.392,0h11a1.93,1.93,0,1,0,.392-3.84,1.975,1.975,0,0,0-.392,0h-5.44m3.73-26.84v3.77H93.54V14.87h30.63m-24.87,23a5.755,5.755,0,0,1,0,11.51h0a5.755,5.755,0,1,1,0-11.51h.08m35.07,15.38L120.51,67.19v-14h13.94m0-53.19H83.4a3,3,0,0,0-1.26.28,5.38,5.38,0,0,0-3.17,5.31V66.04c0,3.49,2,5.48,5.51,5.48h32a3,3,0,0,0,2.68-1.64h.07a3,3,0,0,0,3.27-.65l13.94-13.94a3,3,0,0,0,.65-3.27v-.06a3,3,0,0,0,1.62-2.66V5.64A5.38,5.38,0,0,0,135.54.33a3,3,0,0,0-1.26-.28h0ZM99.25,52.32a8.849,8.849,0,0,0,2.78-.46v5.31c-.37-.19-.75-.37-1.16-.55a4.11,4.11,0,0,0-3.22,0c-.4.18-.77.36-1.14.54V51.88a8.632,8.632,0,0,0,2.76.45h0Zm35.12,3.87" fill="none"/></g><g transform="translate(499.794 320.166)"><path d="M325.2,415.57h1.347q19.343,0,38.679-.019a2.175,2.175,0,0,1,1.956.938,98.019,98.019,0,0,1,10.064,14.869,31.377,31.377,0,0,1,2.552,6.649c.844,3.272-.683,5.041-4.054,5.1-2.073.031-4.147.006-6.457.006a12.528,12.528,0,0,1,2.415,9.5,12.085,12.085,0,0,1-23.909-.627,12.31,12.31,0,0,1,2.539-8.86c-2.837,0-5.445-.006-8.059.012a.879.879,0,0,0-.6.273,23.584,23.584,0,0,0-2.03,2.576c-1.074,1.751-.776,2.695,1.174,3.843-.472.025-.782.062-1.1.056-9.834-.149-19.669-.236-29.5-.478a48.04,48.04,0,0,1-12.671-1.6,9.4,9.4,0,0,1-4.681-3.167,57.37,57.37,0,0,0-5.526-6.215,12.3,12.3,0,0,0-10.635-2.943c-3.694.615-7.307,1.682-10.952,2.558-.41.1-.807.23-1.54.435,3.508-5.2,6.935-10.008,13.342-11.206a28.666,28.666,0,0,1,4.2-.025,2.034,2.034,0,0,0,1.4-.441q9.127-11.51,18.178-23.083a6.236,6.236,0,0,0,.422-.751c-.981-.329-1.887-.7-2.831-.931a1.553,1.553,0,0,1-1.316-1.689c.037-1.633.168-3.259.267-5.072,1.912.3,3.6.546,5.277.838a5.92,5.92,0,0,0,3.378-.329c1.447-.559,3.278-.236,4.93-.093a14.284,14.284,0,0,1,3.048.838c1.906.621,1.9.633,1.614,2.937-1.757,0-3.539.044-5.327-.025a2.605,2.605,0,0,0-2.148.906,35.274,35.274,0,0,0-10.064,24.1c-.118,5.4,2.347,9.772,6.711,12.945a29.348,29.348,0,0,0,17.905,5.73c2.819-.025,5.644.056,8.363-.906,3.793-1.347,5.4-4.3,4.514-8.245-1.043-4.656-3.5-8.6-6.227-12.392C328.408,419.58,326.838,417.687,325.2,415.57Zm34.569,29.857a5.181,5.181,0,1,0,5.215,5.2A5.2,5.2,0,0,0,359.767,445.426Z" transform="translate(0 0)" fill="#fff"/><path d="M276.482,426.378a12.066,12.066,0,1,1,12.057-12.032A12.068,12.068,0,0,1,276.482,426.378Zm5.134-12.063a5.132,5.132,0,0,0-5.1-5.166,5.178,5.178,0,1,0,5.1,5.166Z" transform="translate(0.948 36.282)" fill="#fff"/><path d="M314.121,403.9H274.033v-6.755c.342-.019.714-.062,1.087-.062q16.987,0,33.961-.019a1.61,1.61,0,0,1,1.639.969C311.775,399.952,312.911,401.821,314.121,403.9Z" transform="translate(51.184 9.297)" fill="#fff"/><path d="M286.364,408.034h-3.309v-6.3h3.309Z" transform="translate(98.175 33.642)" fill="#fff"/></g><path d="M-638.634,263.477l.079-.03v1.694a.9.9,0,0,1-.669-.867A.869.869,0,0,1-638.634,263.477Zm2.2,6.256.222-.118a1.142,1.142,0,0,0,.6-1.015c0-.47-.275-.789-.825-.961Zm10.162-3.052A11.553,11.553,0,0,1-637.81,278.22a11.552,11.552,0,0,1-11.539-11.539,11.551,11.551,0,0,1,11.539-11.539A11.552,11.552,0,0,1-626.271,266.681Zm-6.611,1.913a2.584,2.584,0,0,0-.573-1.749,4.653,4.653,0,0,0-3.034-1.435V263.5a2.618,2.618,0,0,1,.722.456.8.8,0,0,0,.5.172.952.952,0,0,0,.343-.1l0,0,1.135-.713a.447.447,0,0,0,.23-.377.426.426,0,0,0-.165-.321,4.358,4.358,0,0,0-2.771-1.5v-1.076a.462.462,0,0,0-.5-.5H-638a.49.49,0,0,0-.533.5v1.048a4.892,4.892,0,0,0-1.429.4,2.93,2.93,0,0,0-2.022,2.788,2.691,2.691,0,0,0,.551,1.613,4.176,4.176,0,0,0,2.9,1.5v2.387a4.35,4.35,0,0,1-1.641-1.138.56.56,0,0,0-.461-.219l-.3.088h0l-1.035.608a.446.446,0,0,0-.256.406l.123.295a5.154,5.154,0,0,0,1.09,1.081,5.259,5.259,0,0,0,2.488,1.061v.941a.536.536,0,0,0,.533.554h1.016a.509.509,0,0,0,.5-.554v-.943a5.292,5.292,0,0,0,2.151-.77A3.02,3.02,0,0,0-632.882,268.594Z" transform="translate(1483.271 443.354)" fill="#fff"/><g transform="translate(-3528.453 -937.063)"><path d="M4313.8,1639.6c-18.253,1.064-22.346,20.061-22.346,20.061s7.307-8.693,22.346-7.586v5.619l10.654-11.815-10.654-11.815Z" fill="#fff"/><path d="M4302.107,1743.835v-5.619l-10.654,11.815,10.654,11.815v-5.536c18.253-1.064,22.346-20.061,22.346-20.061S4317.146,1744.942,4302.107,1743.835Z" transform="translate(0 -79.764)" fill="#fff"/></g></g></svg>