<svg xmlns="http://www.w3.org/2000/svg" xmlns:xlink="http://www.w3.org/1999/xlink" width="328" height="79" viewBox="0 0 328 79">
  <defs>
    <linearGradient id="linear-gradient" x1="0.5" x2="0.5" y2="1" gradientUnits="objectBoundingBox">
      <stop offset="0" stop-color="#ffed4a"/>
      <stop offset="1" stop-color="#ff9d00"/>
    </linearGradient>
    <filter id="回收服務品質問卷" x="100" y="17" width="216" height="48" filterUnits="userSpaceOnUse">
      <feOffset dy="3" input="SourceAlpha"/>
      <feGaussianBlur stdDeviation="3" result="blur"/>
      <feFlood flood-opacity="0.161"/>
      <feComposite operator="in" in2="blur"/>
      <feComposite in="SourceGraphic"/>
    </filter>
  </defs>
  <g id="investigation" transform="translate(-1106 -219.924)">
    <g id="BTN4" transform="translate(1106.94 219.924)">
      <rect id="矩形_1" data-name="矩形 1" width="327" height="79" rx="15" transform="translate(0.06 0)" fill="none"/>
      <g id="矩形_4" data-name="矩形 4" transform="translate(3.06 3)" fill="none" stroke="#dad6d0" stroke-width="1">
        <rect width="321" height="73" rx="10" stroke="none"/>
        <rect x="0.5" y="0.5" width="320" height="72" rx="9.5" fill="none"/>
      </g>
      <g id="矩形_2" data-name="矩形 2" transform="translate(5.06 6)" stroke="#ffd500" stroke-width="5" fill="url(#linear-gradient)">
        <rect width="317" height="66" rx="10" stroke="none"/>
        <rect x="2.5" y="2.5" width="312" height="61" rx="7.5" fill="none"/>
      </g>
      <g transform="matrix(1, 0, 0, 1, -0.94, 0)" filter="url(#回收服務品質問卷)">
        <text id="回收服務品質問卷-2" data-name="回收服務品質問卷" transform="translate(109 23)" fill="#fff" font-size="22" font-family="YuGothicUI-Bold, Yu Gothic UI" font-weight="700"><tspan x="0" y="24">回收服務品質問卷</tspan></text>
      </g>
      <g id="license" transform="translate(71.174 16.938)">
        <path id="路径_11" data-name="路径 11" d="M108.04,1.576a1.3,1.3,0,0,1,.746,1.355V25.91H99.92c-.856,0-1.224.373-1.224,1.229v8.855H81.888c-.977,0-1.318-.336-1.318-1.3V2.941a1.3,1.3,0,0,1,.746-1.355h26.75M89.977,11.8H103.6a1.05,1.05,0,0,0,1.177-1.177V6.949A1.05,1.05,0,0,0,103.6,5.772H85.78A1.05,1.05,0,0,0,84.6,6.949v3.629c0,.877.368,1.245,1.245,1.245h4.123m-4.249,4.034h17.769c.809,0,1.276-.373,1.276-1.008s-.467-1.008-1.276-1.008h-18a1,1,0,0,0,0,2h.21m1.88,16.119a1.32,1.32,0,0,0,.567-.137c.425-.2.835-.431,1.266-.62a.588.588,0,0,1,.425,0c.41.179.8.394,1.2.588a1.482,1.482,0,0,0,.646.168c.567,0,.961-.436.961-1.166V27.165a.637.637,0,0,1,.194-.415,4.957,4.957,0,0,0,1.749-4.591,5.047,5.047,0,0,0-4.979-4.3,4.774,4.774,0,0,0-1.576.263,5.027,5.027,0,0,0-1.665,8.63.645.645,0,0,1,.194.415v3.7a1,1,0,0,0,.892,1.1c.028,0,.056,0,.085.005m11.4-12.08h4.622a1.014,1.014,0,1,0,.206-2.017,1.037,1.037,0,0,0-.206,0H97.792a1.014,1.014,0,1,0-.206,2.017,1.037,1.037,0,0,0,.206,0h1.156m1.765,2.017H97.787a1.014,1.014,0,1,0-.206,2.017,1.037,1.037,0,0,0,.206,0h5.778a1.014,1.014,0,1,0,.206-2.017,1.037,1.037,0,0,0-.206,0h-2.857m1.959-14.1V9.79H86.616V7.81H102.7M89.641,19.89a3.023,3.023,0,0,1,0,6.045h0a3.023,3.023,0,0,1,0-6.045h.042m18.42,8.078-7.322,7.322V27.937H108.1M108.1,0H81.29a1.576,1.576,0,0,0-.662.147,2.826,2.826,0,0,0-1.665,2.789v31.75a2.624,2.624,0,0,0,2.894,2.878H98.664a1.576,1.576,0,0,0,1.408-.861h.037a1.576,1.576,0,0,0,1.717-.341l7.322-7.322a1.576,1.576,0,0,0,.341-1.717v-.032a1.576,1.576,0,0,0,.851-1.4V2.962A2.826,2.826,0,0,0,108.675.173a1.576,1.576,0,0,0-.662-.147h0ZM89.615,27.48a4.648,4.648,0,0,0,1.46-.242v2.789c-.194-.1-.394-.194-.609-.289a2.159,2.159,0,0,0-1.691,0c-.21.095-.4.189-.6.284V27.249a4.534,4.534,0,0,0,1.45.236h0Zm18.446,2.033" transform="translate(-78.955 0)" fill="none"/>
      </g>
    </g>
    <g id="组_23" data-name="组 23" transform="translate(1106 227.148)">
      <g id="组_20" data-name="组 20" transform="translate(46.341 8.188)">
        <path id="路径_95" data-name="路径 95" d="M.975,1.2,46.78,0,45.8,35.526,0,36.721Z" transform="translate(0 42.975) rotate(-66.732)" fill="#fff"/>
        <rect id="矩形_8" data-name="矩形 8" width="0.586" height="24.043" rx="0.293" transform="translate(20.428 10.314) rotate(-66.732)" fill="#ececf0"/>
        <rect id="矩形_9" data-name="矩形 9" width="0.586" height="15.803" rx="0.293" transform="translate(20.007 11.321) rotate(-66.732)" fill="#ececf0"/>
        <rect id="矩形_10" data-name="矩形 10" width="0.586" height="12.022" rx="0.293" transform="translate(19.579 12.374) rotate(-66.732)" fill="#ececf0"/>
        <rect id="矩形_11" data-name="矩形 11" width="0.586" height="24.043" rx="0.293" transform="matrix(0.395, -0.919, 0.919, 0.395, 18.344, 15.617)" fill="#ececf0"/>
        <rect id="矩形_12" data-name="矩形 12" width="0.586" height="15.803" rx="0.293" transform="matrix(0.395, -0.919, 0.919, 0.395, 17.923, 16.592)" fill="#ececf0"/>
        <rect id="矩形_13" data-name="矩形 13" width="0.586" height="12.022" rx="0.293" transform="translate(17.495 17.631) rotate(-66.732)" fill="#ececf0"/>
        <rect id="矩形_14" data-name="矩形 14" width="0.586" height="24.043" rx="0.293" transform="translate(15.924 21.774) rotate(-66.732)" fill="#ececf0"/>
        <rect id="矩形_15" data-name="矩形 15" width="0.586" height="15.803" rx="0.293" transform="translate(15.503 22.712) rotate(-66.732)" fill="#ececf0"/>
        <rect id="矩形_16" data-name="矩形 16" width="0.586" height="12.022" rx="0.293" transform="translate(15.075 23.737) rotate(-66.732)" fill="#ececf0"/>
        <rect id="矩形_17" data-name="矩形 17" width="0.586" height="24.043" rx="0.293" transform="translate(10.655 35.184) rotate(-66.732)" fill="#ececf0"/>
        <rect id="矩形_18" data-name="矩形 18" width="0.586" height="15.803" rx="0.293" transform="translate(10.234 36.041) rotate(-66.732)" fill="#ececf0"/>
        <rect id="矩形_19" data-name="矩形 19" width="0.586" height="12.022" rx="0.293" transform="translate(9.806 37.032) rotate(-66.732)" fill="#ececf0"/>
        <rect id="矩形_20" data-name="矩形 20" width="0.586" height="24.043" rx="0.293" transform="translate(13.859 27.03) rotate(-66.732)" fill="#ececf0"/>
        <rect id="矩形_21" data-name="矩形 21" width="0.586" height="15.803" rx="0.293" transform="translate(13.438 27.936) rotate(-66.732)" fill="#ececf0"/>
        <rect id="矩形_22" data-name="矩形 22" width="0.586" height="15.803" rx="0.293" transform="matrix(0.395, -0.919, 0.919, 0.395, 12.109, 31.299)" fill="#ececf0"/>
        <rect id="矩形_23" data-name="矩形 23" width="0.586" height="12.022" rx="0.293" transform="matrix(0.395, -0.919, 0.919, 0.395, 13.01, 28.947)" fill="#ececf0"/>
        <rect id="矩形_24" data-name="矩形 24" width="0.586" height="9.969" rx="0.293" transform="translate(12.56 30.044) rotate(-66.732)" fill="#ececf0"/>
        <g id="路径_41" data-name="路径 41" transform="translate(-608.512 -364.954)" fill="#88ba34" stroke-linecap="round" stroke-linejoin="round">
          <path d="M 647.6874389648438 388.8789672851562 L 647.4597778320312 387.9249267578125 L 647.0860595703125 386.3591003417969 L 648.4564208984375 385.79541015625 L 648.75 386.2783508300781 L 650.3133544921875 385.7503356933594 L 650.91259765625 387.1192932128906 L 648.5484619140625 388.4091796875 L 647.6874389648438 388.8789672851562 Z" stroke="none"/>
          <path d="M 647.8155517578125 386.1849975585938 L 648.1892700195312 387.7507934570312 L 650.5533447265625 386.4609069824219 L 648.4210815429688 387.1810607910156 L 647.8155517578125 386.1849975585938 M 647.81494140625 384.684814453125 C 648.314453125 384.684814453125 648.79638671875 384.9350280761719 649.0785522460938 385.3757629394531 L 650.0733642578125 385.0397644042969 C 650.8106689453125 384.7908630371094 651.6155395507812 385.146728515625 651.927490234375 385.8594360351562 C 652.2394409179688 386.5721130371094 651.9547119140625 387.405029296875 651.2717895507812 387.7776489257812 L 648.90771484375 389.0675354003906 C 648.4977416992188 389.2913513183594 648.0067749023438 389.3112487792969 647.5796508789062 389.121337890625 C 647.1527709960938 388.9314575195312 646.8387451171875 388.5534973144531 646.730224609375 388.0990295410156 L 646.3565063476562 386.5332336425781 C 646.18505859375 385.81494140625 646.5619506835938 385.0787048339844 647.2449340820312 384.7977905273438 C 647.4306640625 384.7213439941406 647.6241455078125 384.684814453125 647.81494140625 384.684814453125 Z" stroke="none" fill="#88ba34"/>
        </g>
        <g id="路径_42" data-name="路径 42" transform="translate(-561.562 -472.372)" fill="#88ba34" stroke-linecap="round" stroke-linejoin="round">
          <path d="M 591.115234375 520.4403076171875 L 590.887451171875 519.4863891601562 L 590.5136108398438 517.9205932617188 L 591.8839721679688 517.3567504882812 L 592.1776123046875 517.8397216796875 L 593.7409057617188 517.311767578125 L 594.3401489257812 518.6807250976562 L 591.9761962890625 519.9705810546875 L 591.115234375 520.4403076171875 Z" stroke="none"/>
          <path d="M 591.2431030273438 517.7463989257812 L 591.616943359375 519.3121948242188 L 593.9808959960938 518.0223388671875 L 591.8486938476562 518.742431640625 L 591.2431030273438 517.7463989257812 M 591.2425537109375 516.2462158203125 C 591.741943359375 516.2462158203125 592.2239379882812 516.4964599609375 592.506103515625 516.9371948242188 L 593.5009765625 516.6011962890625 C 594.2379760742188 516.3522338867188 595.0430908203125 516.7081909179688 595.3550415039062 517.4208374023438 C 595.6669921875 518.133544921875 595.3822631835938 518.9664306640625 594.6993408203125 519.3390502929688 L 592.3353881835938 520.6289672851562 C 591.9252319335938 520.8527221679688 591.434326171875 520.8726196289062 591.0073852539062 520.6827392578125 C 590.5805053710938 520.492919921875 590.2664794921875 520.114990234375 590.157958984375 519.6605224609375 L 589.7841186523438 518.0947265625 C 589.6126098632812 517.37646484375 589.9894409179688 516.6401977539062 590.67236328125 516.3591918945312 C 590.8582153320312 516.2827758789062 591.0516357421875 516.2462158203125 591.2425537109375 516.2462158203125 Z" stroke="none" fill="#88ba34"/>
        </g>
        <g id="路径_43" data-name="路径 43" transform="translate(-585.937 -416.605)" fill="#88ba34" stroke-linecap="round" stroke-linejoin="round">
          <path d="M 620.4850463867188 452.1394958496094 L 620.25732421875 451.1854858398438 L 619.883544921875 449.6196899414062 L 621.25390625 449.0559997558594 L 621.5474853515625 449.5389404296875 L 623.11083984375 449.0109252929688 L 623.7100830078125 450.3798828125 L 621.3460083007812 451.6697387695312 L 620.4850463867188 452.1394958496094 Z" stroke="none"/>
          <path d="M 620.613037109375 449.445556640625 L 620.98681640625 451.0113525390625 L 623.350830078125 449.7214965820312 L 621.218505859375 450.441650390625 L 620.613037109375 449.445556640625 M 620.6124877929688 447.9453735351562 C 621.1119384765625 447.9453735351562 621.5938720703125 448.1956176757812 621.8760375976562 448.6363525390625 L 622.870849609375 448.3003540039062 C 623.6080932617188 448.0513610839844 624.4130249023438 448.4073486328125 624.7249755859375 449.1200256347656 C 625.0369262695312 449.8327026367188 624.752197265625 450.6656188964844 624.0692749023438 451.0382385253906 L 621.7052612304688 452.3280944824219 C 621.2951049804688 452.5519104003906 620.80419921875 452.5718078613281 620.3772583007812 452.3818969726562 C 619.9503173828125 452.1920471191406 619.6362915039062 451.8140869140625 619.52783203125 451.3596496582031 L 619.154052734375 449.7938537597656 C 618.9825439453125 449.0755310058594 619.3594360351562 448.3392639160156 620.0424194335938 448.058349609375 C 620.2282104492188 447.9819030761719 620.421630859375 447.9453735351562 620.6124877929688 447.9453735351562 Z" stroke="none" fill="#88ba34"/>
        </g>
      </g>
      <g id="组_21" data-name="组 21" transform="translate(22.423 0)">
        <rect id="矩形_45" data-name="矩形 45" width="43.911" height="60.033" rx="8.826" transform="translate(0 5.37)" fill="#13959c"/>
        <path id="路径_48" data-name="路径 48" d="M320.043,310.49a1.531,1.531,0,0,1-1.5,1.56H277.633a1.531,1.531,0,0,1-1.5-1.56V255.478a1.532,1.532,0,0,1,1.5-1.56h40.909a1.532,1.532,0,0,1,1.5,1.56Z" transform="translate(-276.132 -248.548)" fill="#24b7c4"/>
        <rect id="矩形_46" data-name="矩形 46" width="38.812" height="51.653" transform="translate(2.55 8.391)" fill="#fff"/>
        <g id="组_11" data-name="组 11" transform="translate(9.596)">
          <path id="路径_49" data-name="路径 49" d="M357.267,245.836a2.223,2.223,0,0,0-2.223-2.223H334.77a2.223,2.223,0,0,0-2.223,2.223v3.913h24.72Z" transform="translate(-332.547 -239.996)" fill="#b4b3b3"/>
          <circle id="椭圆_5" data-name="椭圆 5" cx="3.446" cy="3.446" r="3.446" transform="matrix(0.592, -0.806, 0.806, 0.592, 7.543, 5.552)" fill="#b4b3b3"/>
          <path id="路径_50" data-name="路径 50" d="M401.117,239.315a1.056,1.056,0,1,1-1.056-1.056A1.056,1.056,0,0,1,401.117,239.315Z" transform="translate(-387.702 -235.553)" fill="#edefc7"/>
          <rect id="矩形_47" data-name="矩形 47" width="24.72" height="2.723" transform="translate(0 7.029)" fill="#d2d2d2"/>
        </g>
        <rect id="矩形_48" data-name="矩形 48" width="26.581" height="0.647" rx="0.324" transform="translate(7.999 19.616)" fill="#ececf0"/>
        <rect id="矩形_49" data-name="矩形 49" width="17.471" height="0.647" rx="0.324" transform="translate(7.999 20.874)" fill="#ececf0"/>
        <rect id="矩形_50" data-name="矩形 50" width="13.29" height="0.647" rx="0.324" transform="translate(7.999 22.153)" fill="#ececf0"/>
        <rect id="矩形_51" data-name="矩形 51" width="21.11" height="1.004" rx="0.502" transform="translate(13.65 28.148)" fill="#ececf0"/>
        <rect id="矩形_52" data-name="矩形 52" width="21.11" height="1.004" rx="0.502" transform="translate(13.65 33.544)" fill="#ececf0"/>
        <rect id="矩形_53" data-name="矩形 53" width="21.11" height="1.004" rx="0.502" transform="translate(13.65 39.037)" fill="#ececf0"/>
        <rect id="矩形_54" data-name="矩形 54" width="21.11" height="1.004" rx="0.502" transform="translate(13.65 44.16)" fill="#ececf0"/>
        <path id="路径_51" data-name="路径 51" d="M326.706,367.668v3.149h-3.149v-3.149h3.149m.4-.4h-3.949v3.949h3.949v-3.949Z" transform="translate(-315.158 -340.862)" fill="#ececf0"/>
        <path id="路径_52" data-name="路径 52" d="M326.706,397.77v3.149h-3.149V397.77h3.149m.4-.4h-3.949v3.949h3.949V397.37Z" transform="translate(-315.158 -365.479)" fill="#ececf0"/>
        <path id="路径_53" data-name="路径 53" d="M326.706,427.841v3.149h-3.149v-3.149h3.149m.4-.4h-3.949v3.949h3.949v-3.949Z" transform="translate(-315.158 -390.071)" fill="#ececf0"/>
        <path id="路径_54" data-name="路径 54" d="M326.706,458.292v3.149h-3.149v-3.149h3.149m.4-.4h-3.949v3.949h3.949v-3.949Z" transform="translate(-315.158 -414.973)" fill="#ececf0"/>
        <g id="路径_55" data-name="路径 55" transform="translate(-318.535 -341.189)" fill="#88ba34" stroke-linecap="round" stroke-linejoin="round">
          <path d="M 328.5118713378906 371.7296447753906 L 327.92578125 370.9432373046875 L 326.6240539550781 369.1966247558594 L 327.6602172851562 368.1373291015625 L 328.4562072753906 368.7037048339844 L 330.2752075195312 367.0699462890625 L 331.366455078125 368.0908508300781 L 329.1172180175781 370.9579772949219 L 328.5118713378906 371.7296447753906 Z" stroke="none"/>
          <path d="M 330.7763671875 367.6279296875 L 328.5106506347656 369.6629333496094 L 327.2254028320312 368.7484436035156 L 328.5271301269531 370.4950561523438 L 330.7763671875 367.6279296875 M 330.7762756347656 366.1279296875 C 331.1448059082031 366.1279296875 331.5130920410156 366.2630920410156 331.8011169433594 366.5325622558594 C 332.3692321777344 367.0640563964844 332.4367370605469 367.9416809082031 331.95654296875 368.5537719726562 L 329.7073059082031 371.4208984375 C 329.4189453125 371.7885131835938 328.9754028320312 372.001220703125 328.5085754394531 371.9949340820312 C 328.0414123535156 371.9891662597656 327.6036071777344 371.7660217285156 327.3244323730469 371.3914184570312 L 326.022705078125 369.6448059082031 C 325.5813903808594 369.0527038574219 325.63671875 368.2274780273438 326.1531066894531 367.6995544433594 C 326.6694946289062 367.171630859375 327.4933471679688 367.0981140136719 328.0950317382812 367.5262451171875 L 328.4017639160156 367.7445068359375 L 329.7740478515625 366.5119934082031 C 330.0593872070312 366.2557067871094 330.41796875 366.1279296875 330.7762756347656 366.1279296875 Z" stroke="none" fill="#88ba34"/>
        </g>
        <g id="路径_56" data-name="路径 56" transform="translate(-318.535 -363.884)" fill="#88ba34" stroke-linecap="round" stroke-linejoin="round">
          <path d="M 328.5118713378906 399.4737854003906 L 327.92578125 398.6873779296875 L 326.6240539550781 396.9407348632812 L 327.6602172851562 395.8814392089844 L 328.4562072753906 396.4478149414062 L 330.2752075195312 394.8140563964844 L 331.366455078125 395.8349609375 L 329.1172180175781 398.7021179199219 L 328.5118713378906 399.4737854003906 Z" stroke="none"/>
          <path d="M 330.7763671875 395.3720397949219 L 328.5106506347656 397.4070434570312 L 327.2254028320312 396.4925537109375 L 328.5271301269531 398.2391967773438 L 330.7763671875 395.3720397949219 M 330.7762756347656 393.8720397949219 C 331.1448059082031 393.8720397949219 331.5130920410156 394.0072021484375 331.8011169433594 394.2766723632812 C 332.3692321777344 394.8081665039062 332.4367370605469 395.6857604980469 331.95654296875 396.2978820800781 L 329.7073059082031 399.1650085449219 C 329.4189453125 399.5326538085938 328.9754028320312 399.7473754882812 328.5085754394531 399.7390747070312 C 328.0414123535156 399.7333068847656 327.6036071777344 399.5101623535156 327.3244018554688 399.1355590820312 L 326.0226745605469 397.388916015625 C 325.5813903808594 396.7967834472656 325.63671875 395.9715576171875 326.1531066894531 395.4436645507812 C 326.6695556640625 394.915771484375 327.4933471679688 394.8422241210938 328.0950317382812 395.2703552246094 L 328.4017639160156 395.4886169433594 L 329.7740478515625 394.256103515625 C 330.0593872070312 393.9998168945312 330.41796875 393.8720397949219 330.7762756347656 393.8720397949219 Z" stroke="none" fill="#88ba34"/>
        </g>
        <path id="路径_57" data-name="路径 57" d="M291.123,482.715v11.618h5.651C296.525,494.334,291.464,488.552,291.123,482.715Z" transform="translate(-288.573 -434.341)" fill="#dddde0"/>
        <path id="路径_58" data-name="路径 58" d="M297.5,484.9a10.478,10.478,0,0,1-3.825-1.969,6.971,6.971,0,0,1-2.548-4.961v.759c.341,5.837,5.4,11.666,5.651,11.665a1.857,1.857,0,0,1-.388-1.168A16.253,16.253,0,0,1,297.5,484.9Z" transform="translate(-288.573 -430.406)" fill="#ececf0"/>
      </g>
      <g id="组_22" data-name="组 22" transform="translate(0 34.745)">
        <path id="路径_60" data-name="路径 60" d="M153.682,641a1.973,1.973,0,0,1-2.79,0h0a1.973,1.973,0,0,1,0-2.79l2.735-2.739a1.973,1.973,0,0,1,2.79,0h0a1.973,1.973,0,0,1,0,2.79Z" transform="translate(-150.313 -613.167)" fill="#fff"/>
        <rect id="矩形_55" data-name="矩形 55" width="1.891" height="3.975" transform="matrix(0.707, -0.708, 0.708, 0.707, 1.066, 24.536)" fill="#d2d2d2"/>
        <path id="路径_61" data-name="路径 61" d="M284.6,510.233l2.813,2.809,2.618-5.4Z" transform="translate(-261.755 -507.556)" fill="#fdfffe"/>
        <path id="路径_62" data-name="路径 62" d="M308.538,507.152l-1.7.813.882.879Z" transform="translate(-280.212 -507.152)" fill="#543823"/>
        <rect id="矩形_56" data-name="矩形 56" width="28.968" height="3.977" transform="translate(2.398 23.2) rotate(-45.114)" fill="#fcb040"/>
        <rect id="矩形_57" data-name="矩形 57" width="28.968" height="1.744" transform="translate(3.188 23.988) rotate(-45.114)" fill="#e6a03a"/>
        <path id="路径_63" data-name="路径 63" d="M321.757,534.563l0,.013" transform="translate(-292.593 -529.901)" fill="#ececf0"/>
      </g>
    </g>
  </g>
</svg>
