<svg id="圖層_1" data-name="圖層 1" xmlns="http://www.w3.org/2000/svg" width="42.01" height="42" viewBox="0 0 42.01 42">
  <title>close</title>
  <g id="close">
    <g style="opacity: 0.64">
      <g>
        <g>
          <path d="M1584.81,1385.58v0.3s0,0.07,0,.1l1.87,0.1s0-.07,0-0.11v-0.77l-1.87,0v0.4Z" transform="translate(-1544.68 -1363.91)" style="fill: #24fdfa"/>
          <path d="M1584.73,1386.88l0,0.2-0.05.4,1.85,0.25,0.06-.44,0-.22c0-.07,0-0.15,0-0.22l-1.86-.17C1584.74,1386.75,1584.73,1386.82,1584.73,1386.88Z" transform="translate(-1544.68 -1363.91)" style="fill: #24fdfa"/>
          <path d="M1584.47,1388.58l0,0.2,0,0.2,1.83,0.4,0-.22,0-.22,0.08-.44-1.84-.32Z" transform="translate(-1544.68 -1363.91)" style="fill: #24fdfa"/>
          <path d="M1584,1390.44l1.79,0.54c0.08-.28.16-0.57,0.24-0.85l-1.81-.46C1584.16,1389.92,1584.09,1390.18,1584,1390.44Z" transform="translate(-1544.68 -1363.91)" style="fill: #24fdfa"/>
          <polygon points="38.98 27.58 38.83 27.96 40.58 28.64 40.74 28.22 40.88 27.8 39.11 27.2 38.98 27.58" style="fill: #24fdfa"/>
          <path d="M1582.92,1393.25l1.68,0.82c0.13-.27.25-0.54,0.37-0.81l-1.72-.74C1583.14,1392.76,1583,1393,1582.92,1393.25Z" transform="translate(-1544.68 -1363.91)" style="fill: #24fdfa"/>
          <path d="M1582.5,1394.06l-0.1.17-0.2.35,1.61,0.95,0.22-.38,0.11-.19,0.1-.2-1.65-.88Z" transform="translate(-1544.68 -1363.91)" style="fill: #24fdfa"/>
          <polygon points="36.93 31.61 36.88 31.7 36.82 31.78 36.7 31.95 38.24 33.02 38.36 32.84 38.43 32.74 38.49 32.65 38.73 32.28 37.15 31.27 36.93 31.61" style="fill: #24fdfa"/>
          <path d="M1580.48,1397.06l1.44,1.19,0.55-.69-1.49-1.13Z" transform="translate(-1544.68 -1363.91)" style="fill: #24fdfa"/>
          <path d="M1579.89,1397.74l-0.14.15-0.28.29,1.35,1.3,0.3-.32,0.15-.16,0.15-.17-1.4-1.24Z" transform="translate(-1544.68 -1363.91)" style="fill: #24fdfa"/>
          <path d="M1578.68,1399l-0.15.14-0.15.13,1.24,1.4,0.17-.15,0.16-.15,0.32-.3-1.3-1.35Z" transform="translate(-1544.68 -1363.91)" style="fill: #24fdfa"/>
          <path d="M1577.22,1400.18l1.13,1.49,0.69-.55-1.19-1.44Z" transform="translate(-1544.68 -1363.91)" style="fill: #24fdfa"/>
          <path d="M1576.48,1400.71l-0.08.06-0.08.05-0.34.22,1,1.58,0.37-.24,0.09-.06,0.09-.06,0.18-.13-1.07-1.53Z" transform="translate(-1544.68 -1363.91)" style="fill: #24fdfa"/>
          <path d="M1575,1401.61l-0.17.1-0.18.09,0.88,1.65,0.2-.1,0.19-.11,0.38-.22-0.95-1.61Z" transform="translate(-1544.68 -1363.91)" style="fill: #24fdfa"/>
          <path d="M1573.86,1402.22l-0.18.08-0.37.17,0.75,1.72,0.4-.18,0.2-.09,0.2-.09-0.82-1.68Z" transform="translate(-1544.68 -1363.91)" style="fill: #24fdfa"/>
          <path d="M1572.28,1402.88l-0.38.13,0.61,1.77,0.42-.14,0.41-.16-0.68-1.74Z" transform="translate(-1544.68 -1363.91)" style="fill: #24fdfa"/>
          <path d="M1570.45,1403.45l0.46,1.81,0.85-.24-0.54-1.79Z" transform="translate(-1544.68 -1363.91)" style="fill: #24fdfa"/>
          <path d="M1569.57,1403.65l-0.2,0-0.4.07,0.32,1.84,0.44-.08,0.22,0,0.22,0-0.4-1.83Z" transform="translate(-1544.68 -1363.91)" style="fill: #24fdfa"/>
          <path d="M1567.88,1403.92l-0.2,0-0.2,0,0.17,1.86,0.22,0,0.22,0,0.44-.06-0.25-1.85Z" transform="translate(-1544.68 -1363.91)" style="fill: #24fdfa"/>
          <polygon points="21.99 40.11 21.89 40.12 21.69 40.12 21.29 40.13 21.32 42 21.76 41.99 21.98 41.98 22.09 41.98 22.2 41.97 22.09 40.11 21.99 40.11" style="fill: #24fdfa"/>
          <path d="M1564.67,1404h-0.2l-0.12,1.87,0.22,0h0.66l0-1.87h-0.6Z" transform="translate(-1544.68 -1363.91)" style="fill: #24fdfa"/>
          <path d="M1562.7,1405.7l0.88,0.11,0.19-1.86-0.8-.1Z" transform="translate(-1544.68 -1363.91)" style="fill: #24fdfa"/>
          <path d="M1561.48,1403.58l-0.41,1.82,0.43,0.1,0.44,0.08,0.33-1.84-0.4-.07Z" transform="translate(-1544.68 -1363.91)" style="fill: #24fdfa"/>
          <path d="M1559.46,1405l0.85,0.24,0.48-1.81-0.78-.22Z" transform="translate(-1544.68 -1363.91)" style="fill: #24fdfa"/>
          <path d="M1557.9,1404.42c0.28,0.11.55,0.22,0.83,0.31l0.62-1.76c-0.26-.08-0.5-0.19-0.75-0.28Z" transform="translate(-1544.68 -1363.91)" style="fill: #24fdfa"/>
          <polygon points="12.89 38.34 12.71 38.25 12.53 38.16 11.7 39.84 11.9 39.94 12.1 40.03 12.5 40.21 13.26 38.5 12.89 38.34" style="fill: #24fdfa"/>
          <path d="M1555.89,1401.35l-1,1.61,0.77,0.44,0.89-1.64Z" transform="translate(-1544.68 -1363.91)" style="fill: #24fdfa"/>
          <path d="M1555,1400.75l-0.33-.23-1.08,1.52,0.36,0.26,0.37,0.24,1-1.57Z" transform="translate(-1544.68 -1363.91)" style="fill: #24fdfa"/>
          <path d="M1553.74,1399.85l-0.31-.25-1.2,1.44,0.34,0.28,0.35,0.27,1.14-1.48Z" transform="translate(-1544.68 -1363.91)" style="fill: #24fdfa"/>
          <polygon points="8.13 35.16 8.06 35.1 7.92 34.96 7.62 34.68 6.32 36.02 6.63 36.32 6.8 36.47 6.88 36.55 6.96 36.62 8.21 35.23 8.13 35.16" style="fill: #24fdfa"/>
          <path d="M1551.54,1397.79l-0.26-.3-1.41,1.23,0.29,0.33,0.3,0.32,1.36-1.29Z" transform="translate(-1544.68 -1363.91)" style="fill: #24fdfa"/>
          <path d="M1550.32,1396.32l-1.5,1.12,0.54,0.7,1.45-1.18Z" transform="translate(-1544.68 -1363.91)" style="fill: #24fdfa"/>
          <path d="M1549.8,1395.58l-0.11-.17-0.22-.34-1.58,1,0.24,0.37,0.12,0.19,0.13,0.18,1.54-1.06Z" transform="translate(-1544.68 -1363.91)" style="fill: #24fdfa"/>
          <polygon points="4.22 30.21 4.18 30.12 4.13 30.03 4.04 29.85 2.38 30.72 2.48 30.91 2.53 31.01 2.59 31.11 2.81 31.49 4.43 30.56 4.22 30.21" style="fill: #24fdfa"/>
          <path d="M1548.07,1392.39l-1.72.73,0.36,0.81,1.69-.8Z" transform="translate(-1544.68 -1363.91)" style="fill: #24fdfa"/>
          <path d="M1547.54,1391l-1.77.59c0.1,0.28.19,0.56,0.3,0.83l1.75-.67C1547.71,1391.49,1547.63,1391.23,1547.54,1391Z" transform="translate(-1544.68 -1363.91)" style="fill: #24fdfa"/>
          <path d="M1547.22,1389.92l-0.05-.19c0-.06,0-0.13,0-0.2l-1.82.45c0,0.07,0,.14.05,0.22l0.06,0.21,0.12,0.43,1.79-.53Z" transform="translate(-1544.68 -1363.91)" style="fill: #24fdfa"/>
          <path d="M1546.92,1388.64l0-.2-0.07-.4-1.85.3,0.08,0.44,0,0.22c0,0.07,0,.15,0,0.22l1.83-.38C1546.94,1388.77,1546.93,1388.71,1546.92,1388.64Z" transform="translate(-1544.68 -1363.91)" style="fill: #24fdfa"/>
          <path d="M1546.66,1386.95v-0.2l0-.2-1.86.16,0,0.22v0.22l0.05,0.44,1.86-.24Z" transform="translate(-1544.68 -1363.91)" style="fill: #24fdfa"/>
          <path d="M1546.55,1385h-1.87q0,0.44,0,.88l1.87-.09Z" transform="translate(-1544.68 -1363.91)" style="fill: #24fdfa"/>
          <path d="M1546.57,1384.24v-0.3s0-.07,0-0.1l-1.87-.1s0,0.07,0,.11v0.77l1.87,0v-0.4Z" transform="translate(-1544.68 -1363.91)" style="fill: #24fdfa"/>
          <path d="M1546.65,1382.94l0-.2,0.05-.4-1.85-.25-0.06.44,0,0.22c0,0.07,0,.15,0,0.22l1.86,0.17C1546.64,1383.07,1546.65,1383,1546.65,1382.94Z" transform="translate(-1544.68 -1363.91)" style="fill: #24fdfa"/>
          <path d="M1546.91,1381.24l0-.2,0-.2-1.83-.4,0,0.22,0,0.22-0.08.44,1.84,0.32Z" transform="translate(-1544.68 -1363.91)" style="fill: #24fdfa"/>
          <path d="M1547.36,1379.38l-1.79-.54c-0.08.28-.16,0.57-0.24,0.85l1.81,0.46C1547.22,1379.9,1547.29,1379.64,1547.36,1379.38Z" transform="translate(-1544.68 -1363.91)" style="fill: #24fdfa"/>
          <polygon points="3.03 14.42 3.18 14.05 1.43 13.37 1.27 13.78 1.13 14.2 2.9 14.8 3.03 14.42" style="fill: #24fdfa"/>
          <path d="M1548.46,1376.57l-1.68-.82c-0.13.27-.25,0.54-0.37,0.81l1.72,0.74C1548.24,1377.06,1548.35,1376.81,1548.46,1376.57Z" transform="translate(-1544.68 -1363.91)" style="fill: #24fdfa"/>
          <path d="M1548.88,1375.76l0.1-.17,0.2-.35-1.61-.95-0.22.38-0.11.19-0.1.2,1.65,0.88Z" transform="translate(-1544.68 -1363.91)" style="fill: #24fdfa"/>
          <polygon points="5.08 10.39 5.13 10.3 5.19 10.22 5.31 10.06 3.77 8.99 3.65 9.17 3.58 9.26 3.52 9.35 3.28 9.72 4.86 10.73 5.08 10.39" style="fill: #24fdfa"/>
          <path d="M1550.9,1372.76l-1.44-1.19-0.55.69,1.49,1.13Z" transform="translate(-1544.68 -1363.91)" style="fill: #24fdfa"/>
          <path d="M1551.49,1372.08l0.14-.15,0.28-.29-1.35-1.3-0.3.32-0.15.16-0.15.17,1.4,1.24Z" transform="translate(-1544.68 -1363.91)" style="fill: #24fdfa"/>
          <path d="M1552.7,1370.86l0.15-.14,0.15-.13-1.24-1.4-0.17.15-0.16.15-0.32.3,1.3,1.35Z" transform="translate(-1544.68 -1363.91)" style="fill: #24fdfa"/>
          <path d="M1554.16,1369.63l-1.13-1.49-0.69.55,1.19,1.44Z" transform="translate(-1544.68 -1363.91)" style="fill: #24fdfa"/>
          <path d="M1554.9,1369.11l0.08-.06,0.08-.05,0.34-.22-1-1.58-0.37.24-0.09.06-0.09.06-0.18.13,1.07,1.53Z" transform="translate(-1544.68 -1363.91)" style="fill: #24fdfa"/>
          <path d="M1556.35,1368.2l0.17-.1,0.18-.09-0.88-1.65-0.2.1-0.19.11-0.38.22,0.95,1.61Z" transform="translate(-1544.68 -1363.91)" style="fill: #24fdfa"/>
          <path d="M1557.52,1367.6l0.18-.08,0.37-.17-0.75-1.72-0.4.18-0.2.09-0.2.09,0.82,1.68Z" transform="translate(-1544.68 -1363.91)" style="fill: #24fdfa"/>
          <path d="M1559.09,1366.94l0.38-.13-0.61-1.77-0.42.14-0.41.16,0.68,1.74Z" transform="translate(-1544.68 -1363.91)" style="fill: #24fdfa"/>
          <path d="M1560.92,1366.37l-0.46-1.81-0.85.24,0.54,1.79Z" transform="translate(-1544.68 -1363.91)" style="fill: #24fdfa"/>
          <path d="M1561.81,1366.17l0.2,0,0.4-.07-0.32-1.84-0.44.08-0.22,0-0.22,0,0.4,1.83Z" transform="translate(-1544.68 -1363.91)" style="fill: #24fdfa"/>
          <path d="M1563.5,1365.9l0.2,0,0.2,0-0.17-1.86-0.22,0-0.22,0-0.44.06,0.25,1.85Z" transform="translate(-1544.68 -1363.91)" style="fill: #24fdfa"/>
          <polygon points="20.02 1.89 20.12 1.89 20.32 1.88 20.72 1.87 20.69 0 20.25 0.01 20.03 0.02 19.92 0.02 19.81 0.03 19.92 1.9 20.02 1.89" style="fill: #24fdfa"/>
          <path d="M1566.71,1365.8h0.2l0.12-1.87-0.22,0h-0.66l0,1.87h0.6Z" transform="translate(-1544.68 -1363.91)" style="fill: #24fdfa"/>
          <path d="M1568.68,1364.12l-0.88-.11-0.19,1.86,0.8,0.1Z" transform="translate(-1544.68 -1363.91)" style="fill: #24fdfa"/>
          <path d="M1569.9,1366.24l0.41-1.82-0.43-.1-0.44-.08-0.33,1.84,0.4,0.07Z" transform="translate(-1544.68 -1363.91)" style="fill: #24fdfa"/>
          <path d="M1571.91,1364.84l-0.85-.24-0.48,1.81,0.78,0.22Z" transform="translate(-1544.68 -1363.91)" style="fill: #24fdfa"/>
          <path d="M1573.48,1365.4c-0.28-.11-0.55-0.22-0.83-0.31l-0.62,1.76c0.26,0.08.5,0.19,0.75,0.28Z" transform="translate(-1544.68 -1363.91)" style="fill: #24fdfa"/>
          <polygon points="29.12 3.67 29.3 3.75 29.48 3.84 30.31 2.17 30.11 2.07 29.91 1.97 29.51 1.79 28.75 3.5 29.12 3.67" style="fill: #24fdfa"/>
          <path d="M1575.49,1368.47l1-1.61-0.77-.44-0.89,1.64Z" transform="translate(-1544.68 -1363.91)" style="fill: #24fdfa"/>
          <path d="M1576.43,1369.07l0.33,0.23,1.08-1.52-0.36-.26-0.37-.24-1,1.57Z" transform="translate(-1544.68 -1363.91)" style="fill: #24fdfa"/>
          <path d="M1577.64,1370l0.31,0.25,1.2-1.44-0.34-.28-0.35-.27-1.14,1.48Z" transform="translate(-1544.68 -1363.91)" style="fill: #24fdfa"/>
          <polygon points="33.88 6.84 33.95 6.91 34.09 7.05 34.39 7.32 35.69 5.99 35.38 5.68 35.22 5.53 35.13 5.46 35.05 5.38 33.8 6.77 33.88 6.84" style="fill: #24fdfa"/>
          <path d="M1579.84,1372l0.26,0.3,1.41-1.23-0.29-.33-0.3-.32-1.36,1.29Z" transform="translate(-1544.68 -1363.91)" style="fill: #24fdfa"/>
          <path d="M1581.06,1373.5l1.5-1.12-0.54-.7-1.45,1.18Z" transform="translate(-1544.68 -1363.91)" style="fill: #24fdfa"/>
          <path d="M1581.58,1374.24l0.11,0.17,0.22,0.34,1.58-1-0.24-.37-0.12-.19L1583,1373l-1.54,1.06Z" transform="translate(-1544.68 -1363.91)" style="fill: #24fdfa"/>
          <polygon points="37.78 11.79 37.83 11.88 37.88 11.97 37.97 12.15 39.63 11.29 39.53 11.09 39.48 10.99 39.42 10.89 39.2 10.51 37.58 11.45 37.78 11.79" style="fill: #24fdfa"/>
          <path d="M1583.31,1377.42l1.72-.73-0.36-.81-1.69.8Z" transform="translate(-1544.68 -1363.91)" style="fill: #24fdfa"/>
          <path d="M1583.84,1378.84l1.77-.59c-0.1-.28-0.19-0.56-0.3-0.83l-1.75.67C1583.67,1378.33,1583.75,1378.59,1583.84,1378.84Z" transform="translate(-1544.68 -1363.91)" style="fill: #24fdfa"/>
          <path d="M1584.16,1379.9l0.05,0.19c0,0.06,0,.13,0,0.2l1.82-.45c0-.07,0-0.14-0.05-0.22l-0.06-.21-0.12-.43-1.79.53Z" transform="translate(-1544.68 -1363.91)" style="fill: #24fdfa"/>
          <path d="M1584.46,1381.18l0,0.2,0.07,0.4,1.85-.3-0.08-.44,0-.22c0-.07,0-0.15,0-0.22l-1.83.38C1584.44,1381,1584.45,1381.11,1584.46,1381.18Z" transform="translate(-1544.68 -1363.91)" style="fill: #24fdfa"/>
          <path d="M1584.72,1382.87v0.2l0,0.2,1.86-.16,0-.22v-0.22l-0.05-.44-1.86.24Z" transform="translate(-1544.68 -1363.91)" style="fill: #24fdfa"/>
          <path d="M1584.82,1384.78h1.87q0-.44,0-0.88l-1.87.09Z" transform="translate(-1544.68 -1363.91)" style="fill: #24fdfa"/>
        </g>
        <path d="M1583.78,1384.51a18.1,18.1,0,0,0-17.66-17.66,0.47,0.47,0,0,0-.45-0.33,18.42,18.42,0,0,0-18.44,18.44,0.47,0.47,0,0,0,.33.45,18.1,18.1,0,0,0,17.66,17.66,0.47,0.47,0,0,0,.45.33,18.42,18.42,0,0,0,18.44-18.44A0.47,0.47,0,0,0,1583.78,1384.51Zm-0.61.45a17.52,17.52,0,0,1-17.5,17.5,0.47,0.47,0,0,0-.45.32,17.84,17.84,0,0,1-17.37-17.37,0.47,0.47,0,0,0,.32-0.45,17.52,17.52,0,0,1,17.5-17.5,0.47,0.47,0,0,0,.45-0.32,17.84,17.84,0,0,1,17.37,17.37A0.47,0.47,0,0,0,1583.16,1385Z" transform="translate(-1544.68 -1363.91)" style="fill: #24fdfa"/>
      </g>
    </g>
    <path d="M1565.69,1371.17a13.74,13.74,0,1,0,13.74,13.74A13.74,13.74,0,0,0,1565.69,1371.17Zm6.06,18.77a0.73,0.73,0,1,1-1,1l-5-5-5,5a0.73,0.73,0,1,1-1-1l5-5-5-5a0.73,0.73,0,1,1,1-1l5,5,5-5a0.73,0.73,0,0,1,1,1l-5,5Z" transform="translate(-1544.68 -1363.91)" style="fill: aqua"/>
  </g>
</svg>
