<?xml version="1.0" encoding="utf-8"?>
<!-- Generator: Adobe Illustrator 25.4.7, SVG Export Plug-In . SVG Version: 6.00 Build 0)  -->
<svg version="1.1" xmlns="http://www.w3.org/2000/svg" xmlns:xlink="http://www.w3.org/1999/xlink" x="0px" y="0px"
	 viewBox="0 0 193.46 253.35" style="enable-background:new 0 0 193.46 253.35;" xml:space="preserve">
	  	<link xmlns="http://www.w3.org/1999/xhtml" rel="stylesheet" href="animate.min.css" type="text/css" />
<style type="text/css">
	.st0{display:none;}
	.st1{display:inline;}
	.st2{fill:#4FFFFF;}
	.st3{fill:#55FEFF;}
	.st4{fill:#04A9B4;}
	.st5{fill:#06ECFB;}
	.st6{fill:url(#SVGID_1_);}
	.st7{clip-path:url(#SVGID_00000174590510939288638700000007212523585418300060_);}
	.st8{filter:url(#Adobe_OpacityMaskFilter);}
	.st9{filter:url(#Adobe_OpacityMaskFilter_00000150062326680219581830000002367518009540448415_);}
	
		.st10{mask:url(#SVGID_00000155112930079217503380000003634081867255563446_);fill:url(#SVGID_00000057110489977881514870000008251506843117783980_);}
	.st11{filter:url(#Adobe_OpacityMaskFilter_00000085968181306453211530000002635713340964196500_);}
	.st12{filter:url(#Adobe_OpacityMaskFilter_00000107554342688837804900000008806694682579142028_);}
	
		.st13{mask:url(#SVGID_00000170275768947465339640000011375462001790490534_);fill:url(#SVGID_00000031177487632234877680000014827110241584301226_);}
	.st14{opacity:0.5;fill:url(#SVGID_00000029032601232796543220000000392273704034321845_);}
	.st15{filter:url(#Adobe_OpacityMaskFilter_00000169547224688657356240000011374170737989531550_);}
	.st16{filter:url(#Adobe_OpacityMaskFilter_00000103231281041619555580000007928979967735944089_);}
	
		.st17{mask:url(#SVGID_00000178917158533817022410000016624689697622991793_);fill:url(#SVGID_00000131360707788096454150000003662028234959898517_);}
	.st18{filter:url(#Adobe_OpacityMaskFilter_00000148636418849192332320000006152280569259228853_);}
	.st19{filter:url(#Adobe_OpacityMaskFilter_00000112610701416313115100000008886703324617100194_);}
	
		.st20{mask:url(#SVGID_00000073688273710429663310000016797845188596250265_);fill:url(#SVGID_00000129175054581019398570000011192210741771662488_);}
	.st21{opacity:0.5;fill:url(#SVGID_00000096768460115506363310000004351207720916718775_);}
	.st22{filter:url(#Adobe_OpacityMaskFilter_00000161606455990275577780000009901579769961918366_);}
	.st23{filter:url(#Adobe_OpacityMaskFilter_00000111149371690917309520000000301136860027855004_);}
	
		.st24{mask:url(#SVGID_00000096756387930709898760000003397691748731706758_);fill:url(#SVGID_00000177479253593719551690000004065424852900982693_);}
	.st25{filter:url(#Adobe_OpacityMaskFilter_00000031165775149297588220000011666990479299813269_);}
	.st26{filter:url(#Adobe_OpacityMaskFilter_00000069368814101449786750000017312206390412579468_);}
	
		.st27{mask:url(#SVGID_00000132085144858350854910000011159343740598713750_);fill:url(#SVGID_00000020399780885146051970000012945477848779228560_);}
	.st28{fill:url(#SVGID_00000154401881979359773690000014471294440353290129_);}
	.st29{filter:url(#Adobe_OpacityMaskFilter_00000059292418478965621240000014927929993221395086_);}
	.st30{filter:url(#Adobe_OpacityMaskFilter_00000023980741649608322480000004403292620244524465_);}
	
		.st31{mask:url(#SVGID_00000025410853148858106020000001707534219132086149_);fill:url(#SVGID_00000165919303481740189320000010314532812750407044_);}
	.st32{filter:url(#Adobe_OpacityMaskFilter_00000094584346546087954570000011799862944648703421_);}
	.st33{filter:url(#Adobe_OpacityMaskFilter_00000095309517282909654800000008274096057357906583_);}
	
		.st34{mask:url(#SVGID_00000172423872711105639900000014207374940405035908_);fill:url(#SVGID_00000090992891740848022820000007780648497770419872_);}
	.st35{opacity:0.5;fill:url(#SVGID_00000108988673787279748070000011976712652292806299_);}
	.st36{filter:url(#Adobe_OpacityMaskFilter_00000162318457924781824810000010690647206210740104_);}
	.st37{filter:url(#Adobe_OpacityMaskFilter_00000127753575986593244290000015495659210726666930_);}
	
		.st38{mask:url(#SVGID_00000020373560017267979520000010415687607655649700_);fill:url(#SVGID_00000140701778002688203530000018215494426891879049_);}
	.st39{filter:url(#Adobe_OpacityMaskFilter_00000128483089030704008340000005984555576063273915_);}
	.st40{filter:url(#Adobe_OpacityMaskFilter_00000155867033449727477220000017674931024283541179_);}
	
		.st41{mask:url(#SVGID_00000061446807827350167000000006597604793811368882_);fill:url(#SVGID_00000003795539080122230120000005844022055610299031_);}
	.st42{fill:url(#SVGID_00000158713364681151268030000004078309348413210289_);}
	.st43{filter:url(#Adobe_OpacityMaskFilter_00000030445526163884832330000007814146506962721158_);}
	.st44{filter:url(#Adobe_OpacityMaskFilter_00000121983919353503765340000004862775237816582588_);}
	
		.st45{mask:url(#SVGID_00000055702144680578626010000004857027747333956247_);fill:url(#SVGID_00000066515241210708399610000014181015207467896718_);}
	.st46{filter:url(#Adobe_OpacityMaskFilter_00000121243027175902376600000001521750305740306835_);}
	.st47{filter:url(#Adobe_OpacityMaskFilter_00000064327342132964190030000010366403002892010140_);}
	
		.st48{mask:url(#SVGID_00000097466460336088915610000015985056879945007803_);fill:url(#SVGID_00000064333030730209212760000005612446207101871295_);}
	.st49{fill:url(#SVGID_00000113326601278928395320000017929685768633531813_);}
			.circle1 {
			position: relative;
			animation: animal 3s infinite linear;
			transform-origin: center;
		}

	
		@keyframes animal {
			0% {
				transform: rotate(0deg);
			}

			100% {
				transform: rotate(-360deg);
			}
		}
		.circle2 {
			position: relative;
			animation: animal2 5s infinite linear;
			transform-origin: center;
		}

	
		@keyframes animal2 {
			0% {
				transform: rotate(-360deg);
			}

			100% {
				transform: rotate(0deg);
			}
		}
</style>
<g id="圖層_2" class="st0">
	<rect x="-48.55" y="-24.57" class="st1" width="329" height="316"/>
</g>
<g id="圖層_1">
	<g id="loading">
		<path class="st2" d="M76.94,133.63h-5.23v-14.82h0.7v14.14h4.53V133.63z"/>
		<path class="st2" d="M78.11,122.72c0-2.53,1.06-3.92,3.15-3.92c2.11,0,3.17,1.36,3.17,3.92v6.97c0,1.65-0.42,2.59-1.03,3.19
			c-0.62,0.59-1.41,0.75-2.13,0.75c-0.7,0-1.5-0.15-2.11-0.75c-0.62-0.59-1.03-1.54-1.03-3.19V122.72z M78.79,129.69
			c0,2.22,0.81,3.25,2.46,3.25c1.61,0,2.46-0.97,2.46-3.25v-6.97c0-2.26-0.81-3.23-2.46-3.23c-1.67,0-2.46,1.04-2.46,3.23V129.69z"
			/>
		<path class="st2" d="M91.57,129.1h-3.91l-1.01,4.53h-0.7l1.17-5.15v-0.07l2.24-9.61h0.55l3.39,14.82h-0.7L91.57,129.1z
			 M87.83,128.42h3.58l-1.8-7.74L87.83,128.42z"/>
		<path class="st2" d="M94.6,133.63v-14.82h2.53c2.35,0,3.43,1.36,3.43,4v6.82c0,2.64-1.08,4-3.43,4H94.6z M95.28,119.49v13.46h1.85
			c1.91,0,2.73-1.03,2.73-3.32v-6.82c0-2.29-0.81-3.32-2.73-3.32H95.28z"/>
		<path class="st2" d="M102.96,133.63h-0.68v-14.82h0.68V133.63z"/>
		<path class="st2" d="M110.41,133.63l-5.12-12.69v12.69h-0.7v-14.82h0.59l5.1,12.69v-12.69h0.7v14.82H110.41z"/>
		<path class="st2" d="M112.52,122.7c0-2.55,1.06-3.89,3.17-3.89c2.11,0,3.17,1.34,3.17,3.89v0.35h-0.7v-0.35
			c0-1.43-0.35-2.24-0.84-2.68c-0.48-0.44-1.1-0.53-1.63-0.53c-0.53,0-1.14,0.09-1.63,0.53c-0.48,0.44-0.86,1.25-0.86,2.68v7.01
			c0,2.2,0.81,3.23,2.49,3.23c1.65,0,2.46-1.03,2.46-3.23v-1.94h-3.21v-0.7h3.91v2.64c0,2.55-1.05,3.92-3.17,3.92
			c-2.11,0-3.17-1.39-3.17-3.92V122.7z"/>
	</g>
	<g id="內圈" class="circle1" style="transform-box:fill-box; transform-origin:center center;">
		<g>
			<path class="st3" d="M100.96,83.99c0.59,0.08,1.18,0.17,1.76,0.28l1.8-11.27c-0.58-0.1-1.17-0.19-1.76-0.28L100.96,83.99z"/>
			<path class="st4" d="M87.2,84.38c0.58-0.11,1.17-0.22,1.76-0.31l-1.82-11.25c-0.59,0.09-1.17,0.19-1.76,0.3L87.2,84.38z"/>
			<path class="st3" d="M113.49,87.75c0.54,0.26,1.07,0.53,1.59,0.81l5.19-10.16c-0.52-0.28-1.05-0.55-1.59-0.81L113.49,87.75z"/>
			<path class="st3" d="M107.29,85.35c0.57,0.17,1.14,0.36,1.7,0.55l3.52-10.85c-0.56-0.19-1.13-0.37-1.7-0.55L107.29,85.35z"/>
			<path class="st3" d="M94.39,72.21v11.41c0.3-0.01,0.59-0.02,0.89-0.02c0.3,0,0.6,0.02,0.89,0.02V72.21
				c-0.3-0.01-0.59-0.01-0.89-0.01S94.69,72.2,94.39,72.21z"/>
			<path class="st4" d="M80.87,86.14c0.56-0.2,1.12-0.39,1.69-0.57l-3.57-10.83c-0.57,0.18-1.13,0.37-1.69,0.57L80.87,86.14z"/>
			<path class="st4" d="M69.61,92.4c0.47-0.37,0.95-0.72,1.43-1.07l-6.74-9.2c-0.48,0.35-0.96,0.7-1.43,1.06L69.61,92.4z"/>
			<path class="st4" d="M57.39,107.64c0.25-0.54,0.52-1.07,0.8-1.6l-10.17-5.16c-0.27,0.53-0.54,1.06-0.8,1.6L57.39,107.64z"/>
			<path class="st4" d="M75.04,88.81c0.52-0.29,1.05-0.56,1.58-0.83l-5.21-10.15c-0.53,0.27-1.06,0.54-1.58,0.83L75.04,88.81z"/>
			<path class="st4" d="M60.54,102.08c0.33-0.49,0.68-0.98,1.03-1.45l-9.25-6.67c-0.35,0.48-0.7,0.96-1.03,1.46L60.54,102.08z"/>
			<path class="st4" d="M64.6,96.98c0.41-0.44,0.82-0.87,1.24-1.29l-8.08-8.05c-0.42,0.42-0.84,0.85-1.25,1.28L64.6,96.98z"/>
			<path class="st4" d="M53.4,125.48c0-0.25,0.01-0.5,0.02-0.75l-11.4-0.13c0,0.29-0.01,0.58-0.01,0.87c0,0.31,0.01,0.61,0.01,0.91
				l11.41,0.13C53.42,126.18,53.4,125.83,53.4,125.48z"/>
			<path class="st4" d="M65.13,154.54l-8.1,8.03c0.41,0.43,0.84,0.85,1.26,1.26l8.11-8.03C65.97,155.39,65.55,154.97,65.13,154.54z"
				/>
			<path class="st3" d="M119.54,91.34c0.49,0.34,0.96,0.7,1.43,1.07l6.74-9.21c-0.47-0.36-0.95-0.72-1.43-1.06L119.54,91.34z"/>
			<path class="st3" d="M125.18,154.81c-0.42,0.43-0.84,0.84-1.28,1.25l8.08,8.05c0.43-0.41,0.85-0.83,1.27-1.25L125.18,154.81z"/>
			<path class="st3" d="M125.88,96.89l8.1-8.03c-0.41-0.43-0.83-0.86-1.25-1.27l-8.1,8.02C125.06,96.02,125.48,96.45,125.88,96.89z"
				/>
			<path class="st3" d="M128.95,100.55c0.35,0.48,0.7,0.96,1.03,1.46l9.24-6.67c-0.34-0.49-0.68-0.97-1.04-1.45L128.95,100.55z"/>
			<path class="st3" d="M132.5,106.25c0.27,0.53,0.54,1.06,0.79,1.6l10.19-5.13c-0.25-0.54-0.52-1.07-0.79-1.6L132.5,106.25z"/>
			<path class="st3" d="M135.13,112.55c0.18,0.56,0.35,1.14,0.51,1.71l10.9-3.4c-0.16-0.57-0.34-1.14-0.52-1.71L135.13,112.55z"/>
			<path class="st3" d="M147.97,117.44l-11.28,1.64c0.09,0.58,0.16,1.18,0.23,1.77l11.29-1.64
				C148.13,118.62,148.06,118.03,147.97,117.44z"/>
			<path class="st4" d="M53.77,120.01c0.08-0.59,0.17-1.18,0.27-1.77l-11.24-1.93c-0.1,0.58-0.19,1.17-0.27,1.77L53.77,120.01z"/>
			<path class="st3" d="M120.53,158.91c-0.47,0.36-0.96,0.71-1.45,1.04l6.74,9.2c0.49-0.34,0.97-0.69,1.45-1.05L120.53,158.91z"/>
			<path class="st3" d="M129.51,149.62c-0.34,0.49-0.7,0.97-1.06,1.44l9.25,6.67c0.36-0.47,0.72-0.95,1.06-1.44L129.51,149.62z"/>
			<path class="st3" d="M114.86,162.52c-0.53,0.28-1.05,0.55-1.59,0.8l5.21,10.15c0.54-0.26,1.07-0.53,1.59-0.81L114.86,162.52z"/>
			<path class="st5" d="M108.81,165.13c-0.56,0.19-1.13,0.37-1.7,0.54l3.58,10.84c0.57-0.17,1.14-0.35,1.7-0.54L108.81,165.13z"/>
			<path class="st5" d="M102.29,166.78c-0.58,0.1-1.17,0.18-1.77,0.26l1.82,11.27c0.59-0.08,1.18-0.17,1.77-0.26L102.29,166.78z"/>
			<path class="st3" d="M136.6,132.41c-0.1,0.59-0.2,1.18-0.33,1.76l11.24,1.93c0.12-0.58,0.22-1.17,0.32-1.76L136.6,132.41z"/>
			<path class="st3" d="M132.9,143.93c-0.26,0.53-0.53,1.07-0.82,1.59l10.17,5.16c0.28-0.52,0.55-1.05,0.82-1.59L132.9,143.93z"/>
			<path class="st3" d="M137.17,125.67c0,0.6-0.02,1.19-0.05,1.79l11.4,0.13c0.02-0.59,0.04-1.19,0.04-1.79L137.17,125.67z"/>
			<path class="st3" d="M135.37,137.66c-0.17,0.57-0.36,1.14-0.56,1.7l10.86,3.49c0.19-0.56,0.38-1.13,0.55-1.7L135.37,137.66z"/>
			<path class="st4" d="M62.09,151.01c-0.36-0.47-0.72-0.95-1.06-1.44l-9.25,6.68c0.34,0.49,0.7,0.96,1.06,1.44L62.09,151.01z"/>
			<path class="st4" d="M55.09,113.7c0.17-0.57,0.35-1.14,0.54-1.7l-10.86-3.5c-0.19,0.56-0.37,1.13-0.54,1.7L55.09,113.7z"/>
			<path class="st4" d="M58.49,145.51c-0.28-0.52-0.55-1.05-0.82-1.59l-10.18,5.13c0.26,0.53,0.54,1.06,0.82,1.59L58.49,145.51z"/>
			<path class="st4" d="M55.7,139.18c-0.19-0.56-0.38-1.13-0.55-1.7l-10.89,3.4c0.17,0.57,0.35,1.14,0.54,1.7L55.7,139.18z"/>
			<path class="st4" d="M54.06,132.88c-0.1-0.58-0.2-1.17-0.28-1.77l-11.29,1.64c0.08,0.59,0.17,1.18,0.27,1.77L54.06,132.88z"/>
			<path class="st5" d="M96.18,178.76v-11.41c-0.3,0.01-0.59,0.02-0.89,0.02c-0.3,0-0.59-0.01-0.89-0.02v11.41
				c0.3,0,0.59,0.01,0.89,0.01S95.88,178.76,96.18,178.76z"/>
			<path class="st4" d="M71.5,159.96c-0.49-0.34-0.98-0.68-1.45-1.04l-6.74,9.2c0.48,0.36,0.96,0.71,1.45,1.05L71.5,159.96z"/>
			<path class="st4" d="M83.16,165.58c-0.57-0.17-1.14-0.36-1.7-0.55l-3.52,10.85c0.56,0.19,1.13,0.38,1.7,0.55L83.16,165.58z"/>
			<path class="st4" d="M89.54,166.97c-0.59-0.08-1.18-0.18-1.76-0.28l-1.8,11.27c0.58,0.1,1.17,0.19,1.76,0.28L89.54,166.97z"/>
			<path class="st4" d="M76.97,163.16c-0.54-0.26-1.07-0.53-1.59-0.81L70.2,172.5c0.52,0.28,1.05,0.55,1.59,0.81L76.97,163.16z"/>
		</g>
	</g>
	<g id="外圈" class="circle2" style="transform-box:fill-box; transform-origin:center center;">
		<linearGradient id="SVGID_1_" gradientUnits="userSpaceOnUse" x1="24.6085" y1="126.4324" x2="164.1476" y2="126.4324">
			<stop  offset="0" style="stop-color:#00AEB9"/>
			<stop  offset="1" style="stop-color:#0378B8"/>
		</linearGradient>
		<path class="st6" d="M45.04,77.1c-27.25,27.25-27.25,71.42,0,98.67c27.25,27.25,71.42,27.25,98.67,0
			c27.25-27.25,27.25-71.42,0-98.67C116.47,49.85,72.29,49.85,45.04,77.1z M135.88,167.93c-22.92,22.92-60.08,22.92-83,0
			c-22.92-22.92-22.92-60.08,0-83c22.92-22.92,60.08-22.92,83,0C158.79,107.85,158.79,145.01,135.88,167.93z"/>
		<g>
			<path class="st2" d="M145.69,71.97C117.08,44.99,72.42,44.8,43.61,71.44l8.41,8.41c24.17-22.01,61.31-21.83,85.27,0.54
				C140.08,77.57,142.88,74.76,145.69,71.97z"/>
		</g>
		<g>
			<path class="st2" d="M154.04,146.53c-3,8.92-8.04,17.31-15.15,24.42c-24.59,24.59-64.45,24.59-89.04,0
				c-8.19-8.19-13.64-18.08-16.37-28.54c-3.84,0.99-7.69,1.94-11.55,2.87c3.24,12.48,9.74,24.29,19.52,34.07
				c29.23,29.23,76.62,29.23,105.85,0c8.96-8.96,15.17-19.64,18.64-30.97C162,147.55,158.03,146.85,154.04,146.53z"/>
		</g>
	</g>
	<g id="光" >
		<defs>
			<path id="SVGID_00000088100087832038413500000003630463843779436959_" d="M28.06,104.76c-11.97,36.63,8.02,76.02,44.65,87.99
				c36.63,11.97,76.02-8.02,87.99-44.65c11.97-36.63-8.02-76.02-44.65-87.99C79.42,48.15,40.03,68.14,28.06,104.76z M150.16,144.66
				c-10.07,30.81-43.2,47.62-74.01,37.56c-30.81-10.07-47.62-43.2-37.56-74.01C48.66,77.4,81.8,60.58,112.6,70.65
				C143.41,80.71,160.23,113.85,150.16,144.66z"/>
		</defs>
		<clipPath id="SVGID_00000088833911349979652020000014137912475897473184_">
			<use xlink:href="#SVGID_00000088100087832038413500000003630463843779436959_"  style="overflow:visible;"/>
		</clipPath>
		<g style="clip-path:url(#SVGID_00000088833911349979652020000014137912475897473184_);">
			<defs>
				<filter id="Adobe_OpacityMaskFilter" filterUnits="userSpaceOnUse" x="60.03" y="149.96" width="100.07" height="51.14">
					<feColorMatrix  type="matrix" values="1 0 0 0 0  0 1 0 0 0  0 0 1 0 0  0 0 0 1 0"/>
				</filter>
			</defs>
			
				<mask maskUnits="userSpaceOnUse" x="60.03" y="149.96" width="100.07" height="51.14" id="SVGID_00000046305437226767864780000010335129990747610005_">
				<g class="st8">
					<defs>
						
							<filter id="Adobe_OpacityMaskFilter_00000079452143649256444840000009939393308669847463_" filterUnits="userSpaceOnUse" x="60.03" y="149.96" width="100.07" height="51.14">
							<feFlood  style="flood-color:white;flood-opacity:1" result="back"/>
							<feBlend  in="SourceGraphic" in2="back" mode="normal"/>
						</filter>
					</defs>
					
						<mask maskUnits="userSpaceOnUse" x="60.03" y="149.96" width="100.07" height="51.14" id="SVGID_00000046305437226767864780000010335129990747610005_">
						<g style="filter:url(#Adobe_OpacityMaskFilter_00000079452143649256444840000009939393308669847463_);">
						</g>
					</mask>
					
						<radialGradient id="SVGID_00000036239860113148083330000008123849683320000926_" cx="98.6684" cy="-435.4384" r="21.7347" gradientTransform="matrix(-2.2989 0.2378 -0.1192 -1.1519 284.9893 -349.5356)" gradientUnits="userSpaceOnUse">
						<stop  offset="0" style="stop-color:#FFFFFF"/>
						<stop  offset="0.0806" style="stop-color:#DADADA"/>
						<stop  offset="0.2202" style="stop-color:#A1A1A1"/>
						<stop  offset="0.3602" style="stop-color:#707070"/>
						<stop  offset="0.4974" style="stop-color:#484848"/>
						<stop  offset="0.6312" style="stop-color:#282828"/>
						<stop  offset="0.7607" style="stop-color:#121212"/>
						<stop  offset="0.8839" style="stop-color:#050505"/>
						<stop  offset="0.9944" style="stop-color:#000000"/>
					</radialGradient>
					
						<path style="mask:url(#SVGID_00000046305437226767864780000010335129990747610005_);fill:url(#SVGID_00000036239860113148083330000008123849683320000926_);" d="
						M60.09,180.7c-1.43-13.83,19.78-27.35,47.37-30.21c27.59-2.85,51.12,6.04,52.55,19.87c1.43,13.83-19.78,27.35-47.37,30.21
						C85.05,203.42,61.52,194.53,60.09,180.7z"/>
				</g>
			</mask>
			<g>
				<defs>
					
						<filter id="Adobe_OpacityMaskFilter_00000174589141406804881680000015767344269852655286_" filterUnits="userSpaceOnUse" x="60.03" y="149.96" width="100.07" height="51.14">
						<feFlood  style="flood-color:white;flood-opacity:1" result="back"/>
						<feBlend  in="SourceGraphic" in2="back" mode="normal"/>
					</filter>
				</defs>
				
					<mask maskUnits="userSpaceOnUse" x="60.03" y="149.96" width="100.07" height="51.14" id="SVGID_00000178184664924489116460000007245232571140461986_">
					<g style="filter:url(#Adobe_OpacityMaskFilter_00000174589141406804881680000015767344269852655286_);">
						<defs>
							
								<filter id="Adobe_OpacityMaskFilter_00000044179268977102167950000007480844013765202055_" filterUnits="userSpaceOnUse" x="60.03" y="149.96" width="100.07" height="51.14">
								<feFlood  style="flood-color:white;flood-opacity:1" result="back"/>
								<feBlend  in="SourceGraphic" in2="back" mode="normal"/>
							</filter>
						</defs>
						
							<mask maskUnits="userSpaceOnUse" x="60.03" y="149.96" width="100.07" height="51.14" id="SVGID_00000178184664924489116460000007245232571140461986_">
							<g style="filter:url(#Adobe_OpacityMaskFilter_00000044179268977102167950000007480844013765202055_);">
							</g>
						</mask>
						
							<radialGradient id="SVGID_00000106862717813905341430000004865290122996251797_" cx="98.6684" cy="-435.4384" r="21.7347" gradientTransform="matrix(-2.2989 0.2378 -0.1192 -1.1519 284.9893 -349.5356)" gradientUnits="userSpaceOnUse">
							<stop  offset="0" style="stop-color:#FFFFFF"/>
							<stop  offset="0.097" style="stop-color:#EFEFEF"/>
							<stop  offset="0.2872" style="stop-color:#C4C4C4"/>
							<stop  offset="0.5521" style="stop-color:#808080"/>
							<stop  offset="0.8784" style="stop-color:#232323"/>
							<stop  offset="0.9944" style="stop-color:#000000"/>
						</radialGradient>
						
							<path style="mask:url(#SVGID_00000178184664924489116460000007245232571140461986_);fill:url(#SVGID_00000106862717813905341430000004865290122996251797_);" d="
							M60.09,180.7c-1.43-13.83,19.78-27.35,47.37-30.21c27.59-2.85,51.12,6.04,52.55,19.87c1.43,13.83-19.78,27.35-47.37,30.21
							C85.05,203.42,61.52,194.53,60.09,180.7z"/>
					</g>
				</mask>
				
					<radialGradient id="SVGID_00000095314374622005527160000007907239726339367326_" cx="98.6684" cy="-435.4384" r="21.7347" gradientTransform="matrix(-2.2989 0.2378 -0.1192 -1.1519 284.9893 -349.5356)" gradientUnits="userSpaceOnUse">
					<stop  offset="0" style="stop-color:#A4F0FF"/>
					<stop  offset="0.4274" style="stop-color:#94FAFF;stop-opacity:0.3108"/>
					<stop  offset="0.6201" style="stop-color:#8BFFFF;stop-opacity:0"/>
				</radialGradient>
				<path style="opacity:0.5;fill:url(#SVGID_00000095314374622005527160000007907239726339367326_);" d="M60.09,180.7
					c-1.43-13.83,19.78-27.35,47.37-30.21c27.59-2.85,51.12,6.04,52.55,19.87c1.43,13.83-19.78,27.35-47.37,30.21
					C85.05,203.42,61.52,194.53,60.09,180.7z"/>
			</g>
			<defs>
				
					<filter id="Adobe_OpacityMaskFilter_00000170979519242725640040000013346288679827808406_" filterUnits="userSpaceOnUse" x="5.47" y="140.01" width="90.51" height="66.63">
					<feColorMatrix  type="matrix" values="1 0 0 0 0  0 1 0 0 0  0 0 1 0 0  0 0 0 1 0"/>
				</filter>
			</defs>
			
				<mask maskUnits="userSpaceOnUse" x="5.47" y="140.01" width="90.51" height="66.63" id="SVGID_00000145026658242472416400000001294601679248305024_">
				<g style="filter:url(#Adobe_OpacityMaskFilter_00000170979519242725640040000013346288679827808406_);">
					<defs>
						
							<filter id="Adobe_OpacityMaskFilter_00000080191477866033964180000012680022757628359319_" filterUnits="userSpaceOnUse" x="5.47" y="140.01" width="90.51" height="66.63">
							<feFlood  style="flood-color:white;flood-opacity:1" result="back"/>
							<feBlend  in="SourceGraphic" in2="back" mode="normal"/>
						</filter>
					</defs>
					
						<mask maskUnits="userSpaceOnUse" x="5.47" y="140.01" width="90.51" height="66.63" id="SVGID_00000145026658242472416400000001294601679248305024_">
						<g style="filter:url(#Adobe_OpacityMaskFilter_00000080191477866033964180000012680022757628359319_);">
						</g>
					</mask>
					
						<radialGradient id="SVGID_00000047032413091666110960000003274591808845583281_" cx="128.0142" cy="-438.5724" r="21.7347" gradientTransform="matrix(-1.9989 -1.1602 0.5813 -1.0016 561.5649 -117.4434)" gradientUnits="userSpaceOnUse">
						<stop  offset="0" style="stop-color:#FFFFFF"/>
						<stop  offset="0.0806" style="stop-color:#DADADA"/>
						<stop  offset="0.2202" style="stop-color:#A1A1A1"/>
						<stop  offset="0.3602" style="stop-color:#707070"/>
						<stop  offset="0.4974" style="stop-color:#484848"/>
						<stop  offset="0.6312" style="stop-color:#282828"/>
						<stop  offset="0.7607" style="stop-color:#121212"/>
						<stop  offset="0.8839" style="stop-color:#050505"/>
						<stop  offset="0.9944" style="stop-color:#000000"/>
					</radialGradient>
					
						<path style="mask:url(#SVGID_00000145026658242472416400000001294601679248305024_);fill:url(#SVGID_00000047032413091666110960000003274591808845583281_);" d="
						M7.28,148.11c6.98-12.02,32.09-10.48,56.08,3.45c23.99,13.93,37.79,34.96,30.81,46.98c-6.98,12.02-32.09,10.48-56.08-3.44
						C14.1,181.17,0.31,160.13,7.28,148.11z"/>
				</g>
			</mask>
			<g>
				<defs>
					
						<filter id="Adobe_OpacityMaskFilter_00000092443256822199916600000011766915613900343203_" filterUnits="userSpaceOnUse" x="5.47" y="140.01" width="90.51" height="66.63">
						<feFlood  style="flood-color:white;flood-opacity:1" result="back"/>
						<feBlend  in="SourceGraphic" in2="back" mode="normal"/>
					</filter>
				</defs>
				
					<mask maskUnits="userSpaceOnUse" x="5.47" y="140.01" width="90.51" height="66.63" id="SVGID_00000178180036200163771570000008643689332582608551_">
					<g style="filter:url(#Adobe_OpacityMaskFilter_00000092443256822199916600000011766915613900343203_);">
						<defs>
							
								<filter id="Adobe_OpacityMaskFilter_00000129903923507182503480000013286520364667142793_" filterUnits="userSpaceOnUse" x="5.47" y="140.01" width="90.51" height="66.63">
								<feFlood  style="flood-color:white;flood-opacity:1" result="back"/>
								<feBlend  in="SourceGraphic" in2="back" mode="normal"/>
							</filter>
						</defs>
						
							<mask maskUnits="userSpaceOnUse" x="5.47" y="140.01" width="90.51" height="66.63" id="SVGID_00000178180036200163771570000008643689332582608551_">
							<g style="filter:url(#Adobe_OpacityMaskFilter_00000129903923507182503480000013286520364667142793_);">
							</g>
						</mask>
						
							<radialGradient id="SVGID_00000020363512646112573680000009872050936533572737_" cx="128.0142" cy="-438.5724" r="21.7347" gradientTransform="matrix(-1.9989 -1.1602 0.5813 -1.0016 561.5649 -117.4434)" gradientUnits="userSpaceOnUse">
							<stop  offset="0" style="stop-color:#FFFFFF"/>
							<stop  offset="0.097" style="stop-color:#EFEFEF"/>
							<stop  offset="0.2872" style="stop-color:#C4C4C4"/>
							<stop  offset="0.5521" style="stop-color:#808080"/>
							<stop  offset="0.8784" style="stop-color:#232323"/>
							<stop  offset="0.9944" style="stop-color:#000000"/>
						</radialGradient>
						
							<path style="mask:url(#SVGID_00000178180036200163771570000008643689332582608551_);fill:url(#SVGID_00000020363512646112573680000009872050936533572737_);" d="
							M7.28,148.11c6.98-12.02,32.09-10.48,56.08,3.45c23.99,13.93,37.79,34.96,30.81,46.98c-6.98,12.02-32.09,10.48-56.08-3.44
							C14.1,181.17,0.31,160.13,7.28,148.11z"/>
					</g>
				</mask>
				
					<radialGradient id="SVGID_00000054226646395329081880000009962149517873270196_" cx="128.0142" cy="-438.5724" r="21.7347" gradientTransform="matrix(-1.9989 -1.1602 0.5813 -1.0016 561.5649 -117.4434)" gradientUnits="userSpaceOnUse">
					<stop  offset="0" style="stop-color:#A4F0FF"/>
					<stop  offset="0.4158" style="stop-color:#94FAFF;stop-opacity:0.3108"/>
					<stop  offset="0.6034" style="stop-color:#8BFFFF;stop-opacity:0"/>
				</radialGradient>
				<path style="opacity:0.5;fill:url(#SVGID_00000054226646395329081880000009962149517873270196_);" d="M7.28,148.11
					c6.98-12.02,32.09-10.48,56.08,3.45c23.99,13.93,37.79,34.96,30.81,46.98c-6.98,12.02-32.09,10.48-56.08-3.44
					C14.1,181.17,0.31,160.13,7.28,148.11z"/>
			</g>
			<defs>
				
					<filter id="Adobe_OpacityMaskFilter_00000161595671758390042490000008821242086669703049_" filterUnits="userSpaceOnUse" x="21.91" y="31.52" width="78.17" height="80.76">
					<feColorMatrix  type="matrix" values="1 0 0 0 0  0 1 0 0 0  0 0 1 0 0  0 0 0 1 0"/>
				</filter>
			</defs>
			
				<mask maskUnits="userSpaceOnUse" x="21.91" y="31.52" width="78.17" height="80.76" id="SVGID_00000070078213632743721080000014784737490977537157_">
				<g style="filter:url(#Adobe_OpacityMaskFilter_00000161595671758390042490000008821242086669703049_);">
					<defs>
						
							<filter id="Adobe_OpacityMaskFilter_00000066474700080218986350000000335203632358060687_" filterUnits="userSpaceOnUse" x="21.91" y="31.52" width="78.17" height="80.76">
							<feFlood  style="flood-color:white;flood-opacity:1" result="back"/>
							<feBlend  in="SourceGraphic" in2="back" mode="normal"/>
						</filter>
					</defs>
					
						<mask maskUnits="userSpaceOnUse" x="21.91" y="31.52" width="78.17" height="80.76" id="SVGID_00000070078213632743721080000014784737490977537157_">
						<g style="filter:url(#Adobe_OpacityMaskFilter_00000066474700080218986350000000335203632358060687_);">
						</g>
					</mask>
					
						<radialGradient id="SVGID_00000018921043953650420830000015354997544358080896_" cx="158.2539" cy="-234.5571" r="21.7347" gradientTransform="matrix(-1.5892 1.6781 -0.8409 -0.7963 115.2442 -380.4368)" gradientUnits="userSpaceOnUse">
						<stop  offset="0" style="stop-color:#FFFFFF"/>
						<stop  offset="0.0806" style="stop-color:#DADADA"/>
						<stop  offset="0.2202" style="stop-color:#A1A1A1"/>
						<stop  offset="0.3602" style="stop-color:#707070"/>
						<stop  offset="0.4974" style="stop-color:#484848"/>
						<stop  offset="0.6312" style="stop-color:#282828"/>
						<stop  offset="0.7607" style="stop-color:#121212"/>
						<stop  offset="0.8839" style="stop-color:#050505"/>
						<stop  offset="0.9944" style="stop-color:#000000"/>
					</radialGradient>
					
						<path style="mask:url(#SVGID_00000070078213632743721080000014784737490977537157_);fill:url(#SVGID_00000018921043953650420830000015354997544358080896_);" d="
						M26.46,108.38c-10.09-9.56-2.81-33.64,16.26-53.78C61.8,34.45,85.44,25.87,95.54,35.43s2.81,33.64-16.26,53.78
						C60.2,109.35,36.55,117.94,26.46,108.38z"/>
				</g>
			</mask>
			<g>
				<defs>
					
						<filter id="Adobe_OpacityMaskFilter_00000063628974498260426180000002124460627466761118_" filterUnits="userSpaceOnUse" x="21.91" y="31.52" width="78.17" height="80.76">
						<feFlood  style="flood-color:white;flood-opacity:1" result="back"/>
						<feBlend  in="SourceGraphic" in2="back" mode="normal"/>
					</filter>
				</defs>
				
					<mask maskUnits="userSpaceOnUse" x="21.91" y="31.52" width="78.17" height="80.76" id="SVGID_00000090296619079011592920000001986697863453437109_">
					<g style="filter:url(#Adobe_OpacityMaskFilter_00000063628974498260426180000002124460627466761118_);">
						<defs>
							
								<filter id="Adobe_OpacityMaskFilter_00000093174809055250901520000004469278194290528957_" filterUnits="userSpaceOnUse" x="21.91" y="31.52" width="78.17" height="80.76">
								<feFlood  style="flood-color:white;flood-opacity:1" result="back"/>
								<feBlend  in="SourceGraphic" in2="back" mode="normal"/>
							</filter>
						</defs>
						
							<mask maskUnits="userSpaceOnUse" x="21.91" y="31.52" width="78.17" height="80.76" id="SVGID_00000090296619079011592920000001986697863453437109_">
							<g style="filter:url(#Adobe_OpacityMaskFilter_00000093174809055250901520000004469278194290528957_);">
							</g>
						</mask>
						
							<radialGradient id="SVGID_00000165914678087262976460000016238085812936879284_" cx="158.2539" cy="-234.5571" r="21.7347" gradientTransform="matrix(-1.5892 1.6781 -0.8409 -0.7963 115.2442 -380.4368)" gradientUnits="userSpaceOnUse">
							<stop  offset="0" style="stop-color:#FFFFFF"/>
							<stop  offset="0.097" style="stop-color:#EFEFEF"/>
							<stop  offset="0.2872" style="stop-color:#C4C4C4"/>
							<stop  offset="0.5521" style="stop-color:#808080"/>
							<stop  offset="0.8784" style="stop-color:#232323"/>
							<stop  offset="0.9944" style="stop-color:#000000"/>
						</radialGradient>
						
							<path style="mask:url(#SVGID_00000090296619079011592920000001986697863453437109_);fill:url(#SVGID_00000165914678087262976460000016238085812936879284_);" d="
							M26.46,108.38c-10.09-9.56-2.81-33.64,16.26-53.78C61.8,34.45,85.44,25.87,95.54,35.43s2.81,33.64-16.26,53.78
							C60.2,109.35,36.55,117.94,26.46,108.38z"/>
					</g>
				</mask>
				
					<radialGradient id="SVGID_00000137104157326092850840000001284504052765195417_" cx="158.2539" cy="-234.5571" r="21.7347" gradientTransform="matrix(-1.5892 1.6781 -0.8409 -0.7963 115.2442 -380.4368)" gradientUnits="userSpaceOnUse">
					<stop  offset="0" style="stop-color:#A4F0FF"/>
					<stop  offset="0.3966" style="stop-color:#94FAFF;stop-opacity:0.3108"/>
					<stop  offset="0.5754" style="stop-color:#8BFFFF;stop-opacity:0"/>
				</radialGradient>
				<path style="fill:url(#SVGID_00000137104157326092850840000001284504052765195417_);" d="M26.46,108.38
					c-10.09-9.56-2.81-33.64,16.26-53.78C61.8,34.45,85.44,25.87,95.54,35.43s2.81,33.64-16.26,53.78
					C60.2,109.35,36.55,117.94,26.46,108.38z"/>
			</g>
			<defs>
				
					<filter id="Adobe_OpacityMaskFilter_00000092434350209295665830000004490049379764773304_" filterUnits="userSpaceOnUse" x="65.08" y="167.41" width="82.22" height="42.02">
					<feColorMatrix  type="matrix" values="1 0 0 0 0  0 1 0 0 0  0 0 1 0 0  0 0 0 1 0"/>
				</filter>
			</defs>
			
				<mask maskUnits="userSpaceOnUse" x="65.08" y="167.41" width="82.22" height="42.02" id="SVGID_00000000182606906042798490000002836319654459392149_">
				<g style="filter:url(#Adobe_OpacityMaskFilter_00000092434350209295665830000004490049379764773304_);">
					<defs>
						
							<filter id="Adobe_OpacityMaskFilter_00000013162713569213300400000005596086210010005926_" filterUnits="userSpaceOnUse" x="65.08" y="167.41" width="82.22" height="42.02">
							<feFlood  style="flood-color:white;flood-opacity:1" result="back"/>
							<feBlend  in="SourceGraphic" in2="back" mode="normal"/>
						</filter>
					</defs>
					
						<mask maskUnits="userSpaceOnUse" x="65.08" y="167.41" width="82.22" height="42.02" id="SVGID_00000000182606906042798490000002836319654459392149_">
						<g style="filter:url(#Adobe_OpacityMaskFilter_00000013162713569213300400000005596086210010005926_);">
						</g>
					</mask>
					
						<radialGradient id="SVGID_00000056385142288872379220000000944517396197914035_" cx="100.9048" cy="-446.1701" r="17.8594" gradientTransform="matrix(-2.2989 0.2378 -0.1192 -1.1519 284.9893 -349.5356)" gradientUnits="userSpaceOnUse">
						<stop  offset="0" style="stop-color:#FFFFFF"/>
						<stop  offset="0.0806" style="stop-color:#DADADA"/>
						<stop  offset="0.2202" style="stop-color:#A1A1A1"/>
						<stop  offset="0.3602" style="stop-color:#707070"/>
						<stop  offset="0.4974" style="stop-color:#484848"/>
						<stop  offset="0.6312" style="stop-color:#282828"/>
						<stop  offset="0.7607" style="stop-color:#121212"/>
						<stop  offset="0.8839" style="stop-color:#050505"/>
						<stop  offset="0.9944" style="stop-color:#000000"/>
					</radialGradient>
					
						<path style="mask:url(#SVGID_00000000182606906042798490000002836319654459392149_);fill:url(#SVGID_00000056385142288872379220000000944517396197914035_);" d="
						M65.14,192.67c-1.18-11.36,16.25-22.48,38.93-24.82c22.67-2.35,42.01,4.96,43.18,16.33c1.18,11.36-16.25,22.47-38.93,24.82
						C85.65,211.35,66.32,204.04,65.14,192.67z"/>
				</g>
			</mask>
			<g>
				<defs>
					
						<filter id="Adobe_OpacityMaskFilter_00000025428217623721864470000010982061988636644227_" filterUnits="userSpaceOnUse" x="65.08" y="167.41" width="82.22" height="42.02">
						<feFlood  style="flood-color:white;flood-opacity:1" result="back"/>
						<feBlend  in="SourceGraphic" in2="back" mode="normal"/>
					</filter>
				</defs>
				
					<mask maskUnits="userSpaceOnUse" x="65.08" y="167.41" width="82.22" height="42.02" id="SVGID_00000176745833281145769780000017643580799051357323_">
					<g style="filter:url(#Adobe_OpacityMaskFilter_00000025428217623721864470000010982061988636644227_);">
						<defs>
							
								<filter id="Adobe_OpacityMaskFilter_00000150085826996478413850000008077793288104512139_" filterUnits="userSpaceOnUse" x="65.08" y="167.41" width="82.22" height="42.02">
								<feFlood  style="flood-color:white;flood-opacity:1" result="back"/>
								<feBlend  in="SourceGraphic" in2="back" mode="normal"/>
							</filter>
						</defs>
						
							<mask maskUnits="userSpaceOnUse" x="65.08" y="167.41" width="82.22" height="42.02" id="SVGID_00000176745833281145769780000017643580799051357323_">
							<g style="filter:url(#Adobe_OpacityMaskFilter_00000150085826996478413850000008077793288104512139_);">
							</g>
						</mask>
						
							<radialGradient id="SVGID_00000168092121646881166430000015466597221378939826_" cx="100.9048" cy="-446.1701" r="17.8594" gradientTransform="matrix(-2.2989 0.2378 -0.1192 -1.1519 284.9893 -349.5356)" gradientUnits="userSpaceOnUse">
							<stop  offset="0" style="stop-color:#FFFFFF"/>
							<stop  offset="0.097" style="stop-color:#EFEFEF"/>
							<stop  offset="0.2872" style="stop-color:#C4C4C4"/>
							<stop  offset="0.5521" style="stop-color:#808080"/>
							<stop  offset="0.8784" style="stop-color:#232323"/>
							<stop  offset="0.9944" style="stop-color:#000000"/>
						</radialGradient>
						
							<path style="mask:url(#SVGID_00000176745833281145769780000017643580799051357323_);fill:url(#SVGID_00000168092121646881166430000015466597221378939826_);" d="
							M65.14,192.67c-1.18-11.36,16.25-22.48,38.93-24.82c22.67-2.35,42.01,4.96,43.18,16.33c1.18,11.36-16.25,22.47-38.93,24.82
							C85.65,211.35,66.32,204.04,65.14,192.67z"/>
					</g>
				</mask>
				
					<radialGradient id="SVGID_00000073688091469184591730000000008898865487883661_" cx="100.9048" cy="-446.1701" r="17.8594" gradientTransform="matrix(-2.2989 0.2378 -0.1192 -1.1519 284.9893 -349.5356)" gradientUnits="userSpaceOnUse">
					<stop  offset="0" style="stop-color:#A4F0FF"/>
					<stop  offset="0.3966" style="stop-color:#94FAFF;stop-opacity:0.3108"/>
					<stop  offset="0.5754" style="stop-color:#8BFFFF;stop-opacity:0"/>
				</radialGradient>
				<path style="opacity:0.5;fill:url(#SVGID_00000073688091469184591730000000008898865487883661_);" d="M65.14,192.67
					c-1.18-11.36,16.25-22.48,38.93-24.82c22.67-2.35,42.01,4.96,43.18,16.33c1.18,11.36-16.25,22.47-38.93,24.82
					C85.65,211.35,66.32,204.04,65.14,192.67z"/>
			</g>
			<defs>
				
					<filter id="Adobe_OpacityMaskFilter_00000121969691830428657750000005877156390630379680_" filterUnits="userSpaceOnUse" x="97.89" y="157.43" width="75.73" height="51.35">
					<feColorMatrix  type="matrix" values="1 0 0 0 0  0 1 0 0 0  0 0 1 0 0  0 0 0 1 0"/>
				</filter>
			</defs>
			
				<mask maskUnits="userSpaceOnUse" x="97.89" y="157.43" width="75.73" height="51.35" id="SVGID_00000052827077706801187920000002720479511663039905_">
				<g style="filter:url(#Adobe_OpacityMaskFilter_00000121969691830428657750000005877156390630379680_);">
					<defs>
						
							<filter id="Adobe_OpacityMaskFilter_00000075125197852955254190000004717996336500511677_" filterUnits="userSpaceOnUse" x="97.89" y="157.43" width="75.73" height="51.35">
							<feFlood  style="flood-color:white;flood-opacity:1" result="back"/>
							<feBlend  in="SourceGraphic" in2="back" mode="normal"/>
						</filter>
					</defs>
					
						<mask maskUnits="userSpaceOnUse" x="97.89" y="157.43" width="75.73" height="51.35" id="SVGID_00000052827077706801187920000002720479511663039905_">
						<g style="filter:url(#Adobe_OpacityMaskFilter_00000075125197852955254190000004717996336500511677_);">
						</g>
					</mask>
					
						<radialGradient id="SVGID_00000036232217312232069620000016862232988040557481_" cx="41.7204" cy="-198.7192" r="9.8263" gradientTransform="matrix(3.7555 -2.1284 0.8587 1.5151 149.7103 572.9846)" gradientUnits="userSpaceOnUse">
						<stop  offset="0" style="stop-color:#FFFFFF"/>
						<stop  offset="0.0806" style="stop-color:#DADADA"/>
						<stop  offset="0.2202" style="stop-color:#A1A1A1"/>
						<stop  offset="0.3602" style="stop-color:#707070"/>
						<stop  offset="0.4974" style="stop-color:#484848"/>
						<stop  offset="0.6312" style="stop-color:#282828"/>
						<stop  offset="0.7607" style="stop-color:#121212"/>
						<stop  offset="0.8839" style="stop-color:#050505"/>
						<stop  offset="0.9944" style="stop-color:#000000"/>
					</radialGradient>
					
						<path style="mask:url(#SVGID_00000052827077706801187920000002720479511663039905_);fill:url(#SVGID_00000036232217312232069620000016862232988040557481_);" d="
						M172.66,162.19c4.66,8.22-8.09,24.25-28.47,35.8c-20.38,11.55-40.68,14.25-45.34,6.03c-4.66-8.22,8.09-24.25,28.47-35.8
						C147.7,156.67,168,153.97,172.66,162.19z"/>
				</g>
			</mask>
			<g>
				<defs>
					
						<filter id="Adobe_OpacityMaskFilter_00000031167678033933561990000005254197820499669151_" filterUnits="userSpaceOnUse" x="97.89" y="157.43" width="75.73" height="51.35">
						<feFlood  style="flood-color:white;flood-opacity:1" result="back"/>
						<feBlend  in="SourceGraphic" in2="back" mode="normal"/>
					</filter>
				</defs>
				
					<mask maskUnits="userSpaceOnUse" x="97.89" y="157.43" width="75.73" height="51.35" id="SVGID_00000093149461459072589620000004434415291220499897_">
					<g style="filter:url(#Adobe_OpacityMaskFilter_00000031167678033933561990000005254197820499669151_);">
						<defs>
							
								<filter id="Adobe_OpacityMaskFilter_00000113317329948610905720000009130803249672250784_" filterUnits="userSpaceOnUse" x="97.89" y="157.43" width="75.73" height="51.35">
								<feFlood  style="flood-color:white;flood-opacity:1" result="back"/>
								<feBlend  in="SourceGraphic" in2="back" mode="normal"/>
							</filter>
						</defs>
						
							<mask maskUnits="userSpaceOnUse" x="97.89" y="157.43" width="75.73" height="51.35" id="SVGID_00000093149461459072589620000004434415291220499897_">
							<g style="filter:url(#Adobe_OpacityMaskFilter_00000113317329948610905720000009130803249672250784_);">
							</g>
						</mask>
						
							<radialGradient id="SVGID_00000030475299576935433520000000124887584292269448_" cx="41.7204" cy="-198.7192" r="9.8263" gradientTransform="matrix(3.7555 -2.1284 0.8587 1.5151 149.7103 572.9846)" gradientUnits="userSpaceOnUse">
							<stop  offset="0" style="stop-color:#FFFFFF"/>
							<stop  offset="0.0931" style="stop-color:#F0F0F0"/>
							<stop  offset="0.2714" style="stop-color:#CACACA"/>
							<stop  offset="0.5165" style="stop-color:#8B8B8B"/>
							<stop  offset="0.8158" style="stop-color:#363636"/>
							<stop  offset="0.9944" style="stop-color:#000000"/>
						</radialGradient>
						
							<path style="mask:url(#SVGID_00000093149461459072589620000004434415291220499897_);fill:url(#SVGID_00000030475299576935433520000000124887584292269448_);" d="
							M172.66,162.19c4.66,8.22-8.09,24.25-28.47,35.8c-20.38,11.55-40.68,14.25-45.34,6.03c-4.66-8.22,8.09-24.25,28.47-35.8
							C147.7,156.67,168,153.97,172.66,162.19z"/>
					</g>
				</mask>
				
					<radialGradient id="SVGID_00000047750345804351243010000009231587083580341417_" cx="41.7204" cy="-198.7192" r="7.5009" gradientTransform="matrix(3.7555 -2.1284 0.8587 1.5151 149.7103 572.9846)" gradientUnits="userSpaceOnUse">
					<stop  offset="0" style="stop-color:#25FFFF"/>
					<stop  offset="0.1696" style="stop-color:#34FFFF;stop-opacity:0.8003"/>
					<stop  offset="0.4941" style="stop-color:#5AFFFF;stop-opacity:0.4181"/>
					<stop  offset="0.8492" style="stop-color:#8BFFFF;stop-opacity:0"/>
				</radialGradient>
				<path style="fill:url(#SVGID_00000047750345804351243010000009231587083580341417_);" d="M172.66,162.19
					c4.66,8.22-8.09,24.25-28.47,35.8c-20.38,11.55-40.68,14.25-45.34,6.03c-4.66-8.22,8.09-24.25,28.47-35.8
					C147.7,156.67,168,153.97,172.66,162.19z"/>
			</g>
			<defs>
				
					<filter id="Adobe_OpacityMaskFilter_00000029741552510789834600000005969604373640103071_" filterUnits="userSpaceOnUse" x="107.12" y="58.01" width="75.78" height="46.71">
					<feColorMatrix  type="matrix" values="1 0 0 0 0  0 1 0 0 0  0 0 1 0 0  0 0 0 1 0"/>
				</filter>
			</defs>
			
				<mask maskUnits="userSpaceOnUse" x="107.12" y="58.01" width="75.78" height="46.71" id="SVGID_00000082354921259961917370000015620413258268123569_">
				<g style="filter:url(#Adobe_OpacityMaskFilter_00000029741552510789834600000005969604373640103071_);">
					<defs>
						
							<filter id="Adobe_OpacityMaskFilter_00000145024771354952399510000003122791269240991639_" filterUnits="userSpaceOnUse" x="107.12" y="58.01" width="75.78" height="46.71">
							<feFlood  style="flood-color:white;flood-opacity:1" result="back"/>
							<feBlend  in="SourceGraphic" in2="back" mode="normal"/>
						</filter>
					</defs>
					
						<mask maskUnits="userSpaceOnUse" x="107.12" y="58.01" width="75.78" height="46.71" id="SVGID_00000082354921259961917370000015620413258268123569_">
						<g style="filter:url(#Adobe_OpacityMaskFilter_00000145024771354952399510000003122791269240991639_);">
						</g>
					</mask>
					
						<radialGradient id="SVGID_00000149348171560607791720000000598662354673227444_" cx="43.0209" cy="-263.0714" r="9.5608" gradientTransform="matrix(3.8898 1.8718 -0.7552 1.5693 -220.9899 413.6608)" gradientUnits="userSpaceOnUse">
						<stop  offset="0" style="stop-color:#FFFFFF"/>
						<stop  offset="0.0806" style="stop-color:#DADADA"/>
						<stop  offset="0.2202" style="stop-color:#A1A1A1"/>
						<stop  offset="0.3602" style="stop-color:#707070"/>
						<stop  offset="0.4974" style="stop-color:#484848"/>
						<stop  offset="0.6312" style="stop-color:#282828"/>
						<stop  offset="0.7607" style="stop-color:#121212"/>
						<stop  offset="0.8839" style="stop-color:#050505"/>
						<stop  offset="0.9944" style="stop-color:#000000"/>
					</radialGradient>
					
						<path style="mask:url(#SVGID_00000082354921259961917370000015620413258268123569_);fill:url(#SVGID_00000149348171560607791720000000598662354673227444_);" d="
						M182.2,99.26c-3.99,8.28-23.87,6.99-44.41-2.89c-20.54-9.88-33.96-24.61-29.97-32.9c3.99-8.29,23.87-6.99,44.41,2.89
						C172.77,76.24,186.19,90.97,182.2,99.26z"/>
				</g>
			</mask>
			<g>
				<defs>
					
						<filter id="Adobe_OpacityMaskFilter_00000066477711903756578320000017343844704362719421_" filterUnits="userSpaceOnUse" x="107.12" y="58.01" width="75.78" height="46.71">
						<feFlood  style="flood-color:white;flood-opacity:1" result="back"/>
						<feBlend  in="SourceGraphic" in2="back" mode="normal"/>
					</filter>
				</defs>
				
					<mask maskUnits="userSpaceOnUse" x="107.12" y="58.01" width="75.78" height="46.71" id="SVGID_00000029761913507138409380000000700605593373302163_">
					<g style="filter:url(#Adobe_OpacityMaskFilter_00000066477711903756578320000017343844704362719421_);">
						<defs>
							
								<filter id="Adobe_OpacityMaskFilter_00000129184110391758177920000001125839353939787396_" filterUnits="userSpaceOnUse" x="107.12" y="58.01" width="75.78" height="46.71">
								<feFlood  style="flood-color:white;flood-opacity:1" result="back"/>
								<feBlend  in="SourceGraphic" in2="back" mode="normal"/>
							</filter>
						</defs>
						
							<mask maskUnits="userSpaceOnUse" x="107.12" y="58.01" width="75.78" height="46.71" id="SVGID_00000029761913507138409380000000700605593373302163_">
							<g style="filter:url(#Adobe_OpacityMaskFilter_00000129184110391758177920000001125839353939787396_);">
							</g>
						</mask>
						
							<radialGradient id="SVGID_00000116217603014848372620000017378238081449113522_" cx="43.0209" cy="-263.0714" r="9.5608" gradientTransform="matrix(3.8898 1.8718 -0.7552 1.5693 -220.9899 413.6608)" gradientUnits="userSpaceOnUse">
							<stop  offset="0" style="stop-color:#FFFFFF"/>
							<stop  offset="0.0931" style="stop-color:#F0F0F0"/>
							<stop  offset="0.2714" style="stop-color:#CACACA"/>
							<stop  offset="0.5165" style="stop-color:#8B8B8B"/>
							<stop  offset="0.8158" style="stop-color:#363636"/>
							<stop  offset="0.9944" style="stop-color:#000000"/>
						</radialGradient>
						
							<path style="mask:url(#SVGID_00000029761913507138409380000000700605593373302163_);fill:url(#SVGID_00000116217603014848372620000017378238081449113522_);" d="
							M182.2,99.26c-3.99,8.28-23.87,6.99-44.41-2.89c-20.54-9.88-33.96-24.61-29.97-32.9c3.99-8.29,23.87-6.99,44.41,2.89
							C172.77,76.24,186.19,90.97,182.2,99.26z"/>
					</g>
				</mask>
				
					<radialGradient id="SVGID_00000070816385367014181090000001682241450434268325_" cx="43.0209" cy="-263.0714" r="9.5608" gradientTransform="matrix(3.8898 1.8718 -0.7552 1.5693 -220.9899 413.6608)" gradientUnits="userSpaceOnUse">
					<stop  offset="0" style="stop-color:#25FFFF"/>
					<stop  offset="0.1049" style="stop-color:#34FFFF;stop-opacity:0.8003"/>
					<stop  offset="0.3056" style="stop-color:#5AFFFF;stop-opacity:0.4181"/>
					<stop  offset="0.5251" style="stop-color:#8BFFFF;stop-opacity:0"/>
				</radialGradient>
				<path style="fill:url(#SVGID_00000070816385367014181090000001682241450434268325_);" d="M182.2,99.26
					c-3.99,8.28-23.87,6.99-44.41-2.89c-20.54-9.88-33.96-24.61-29.97-32.9c3.99-8.29,23.87-6.99,44.41,2.89
					C172.77,76.24,186.19,90.97,182.2,99.26z"/>
			</g>
		</g>
	</g>
	<g>
	</g>
	<g>
	</g>
	<g>
	</g>
	<g>
	</g>
	<g>
	</g>
	<g>
	</g>
	<g>
	</g>
	<g>
	</g>
	<g>
	</g>
	<g>
	</g>
	<g>
	</g>
	<g>
	</g>
	<g>
	</g>
	<g>
	</g>
	<g>
	</g>
</g>
</svg>
