<svg xmlns="http://www.w3.org/2000/svg" width="30.5" height="30.5" viewBox="0 0 30.5 30.5">
  <g id="shine_icon" transform="translate(-1189.5 -371.537)">
    <path id="路径_110" data-name="路径 110" d="M1204.85,378.415a8.372,8.372,0,1,1-8.373,8.372,8.381,8.381,0,0,1,8.373-8.372Zm0-.6a8.971,8.971,0,1,0,8.97,8.97,8.97,8.97,0,0,0-8.97-8.97Z" fill="#00edff"/>
    <path id="路径_111" data-name="路径 111" d="M1204.85,374.826a11.961,11.961,0,1,0,11.96,11.961A11.961,11.961,0,0,0,1204.85,374.826Zm0,22.875a10.914,10.914,0,1,1,10.914-10.914A10.914,10.914,0,0,1,1204.85,397.7Z" fill="#00b7ff" opacity="0.3"/>
    <path id="路径_112" data-name="路径 112" d="M1200.771,384.928l-3.273-3.274c-.116.168-.224.341-.329.516l3.373,3.374A4.586,4.586,0,0,1,1200.771,384.928Zm5.787-2.287-4.409-4.409c-.21.066-.415.145-.619.226l3.883,3.883A4.439,4.439,0,0,1,1206.558,382.641Zm-4.633.749-3.171-3.171c-.146.136-.288.275-.425.42l3.171,3.172A4.57,4.57,0,0,1,1201.925,383.39Zm1.761-.93-3.391-3.391c-.177.1-.352.208-.521.324l3.283,3.283A4.483,4.483,0,0,1,1203.686,382.46Zm4.14,7.676,3.171,3.172c.145-.138.285-.279.42-.425l-3.171-3.172A4.561,4.561,0,0,1,1207.826,390.136Zm-11.922-3.848,9.444,9.445c.261-.015.517-.04.771-.076l-10.14-10.14C1195.943,385.771,1195.919,386.028,1195.9,386.288Zm.345,3.036,6.064,6.064a8.847,8.847,0,0,0,1.088.242l-7.4-7.394A8.942,8.942,0,0,0,1196.249,389.324Zm7.049,1.667,4.325,4.325c.21-.069.416-.144.619-.227l-3.839-3.839A4.419,4.419,0,0,1,1203.3,390.991Zm1.147-13.154c-.262.012-.522.032-.779.067l10.067,10.066c.034-.257.055-.516.067-.779Zm8.97,6.278-5.894-5.894a8.968,8.968,0,0,0-1.1-.259l7.259,7.258A9.073,9.073,0,0,0,1213.415,384.115Zm-13.028,3.119-3.839-3.839c-.083.2-.159.409-.227.619l4.325,4.324A4.415,4.415,0,0,1,1200.387,387.234Zm8.909-1.01,3.882,3.882c.081-.2.16-.408.227-.619L1209,385.078A4.487,4.487,0,0,1,1209.3,386.224Zm-.336,2.356,3.283,3.282c.116-.168.22-.344.325-.521l-3.391-3.391A4.5,4.5,0,0,1,1208.96,388.58Zm-2.868,2.514,3.374,3.374c.175-.106.349-.213.516-.33l-3.273-3.273A4.379,4.379,0,0,1,1206.092,391.094Z" fill="#00b7ff" opacity="0.3"/>
    <g id="组_111" data-name="组 111">
      <path id="路径_113" data-name="路径 113" d="M1204.85,382.7a4.087,4.087,0,1,1-4.087,4.087,4.091,4.091,0,0,1,4.087-4.087Zm0-.6a4.685,4.685,0,1,0,4.684,4.685,4.685,4.685,0,0,0-4.684-4.685Z" fill="#00edff"/>
    </g>
    <g id="组_112" data-name="组 112">
      <rect id="矩形_15" data-name="矩形 15" width="6.778" height="0.598" transform="translate(1189.5 386.488)" fill="#00edff"/>
    </g>
    <g id="组_113" data-name="组 113">
      <rect id="矩形_16" data-name="矩形 16" width="6.778" height="0.598" transform="translate(1213.222 386.488)" fill="#00edff"/>
    </g>
    <g id="组_114" data-name="组 114">
      <rect id="矩形_17" data-name="矩形 17" width="0.598" height="6.778" transform="translate(1204.451 371.537)" fill="#00edff"/>
    </g>
    <g id="组_115" data-name="组 115">
      <rect id="矩形_18" data-name="矩形 18" width="0.598" height="6.778" transform="translate(1204.451 395.259)" fill="#00edff"/>
    </g>
    <path id="路径_114" data-name="路径 114" d="M1206.146,386.787a1.3,1.3,0,1,1-1.3-1.3A1.3,1.3,0,0,1,1206.146,386.787Z" fill="#00b7ff" opacity="0.3"/>
  </g>
</svg>
